G04 EAGLE Gerber RS-274X export*
G75*
%MOMM*%
%FSLAX34Y34*%
%LPD*%
%INTop Copper*%
%IPPOS*%
%AMOC8*
5,1,8,0,0,1.08239X$1,22.5*%
G01*
%ADD10C,0.130000*%
%ADD11C,0.130000*%
%ADD12C,0.152400*%
%ADD13P,1.732040X8X202.500000*%
%ADD14P,1.732040X8X292.500000*%
%ADD15P,1.732040X8X22.500000*%
%ADD16P,3.409096X8X292.500000*%
%ADD17P,3.409096X8X202.500000*%
%ADD18P,1.319650X8X292.500000*%
%ADD19P,2.336880X8X22.500000*%
%ADD20P,1.319650X8X202.500000*%
%ADD21P,1.319650X8X112.500000*%
%ADD22P,1.319650X8X22.500000*%
%ADD23C,1.219200*%
%ADD24R,2.200000X0.600000*%
%ADD25R,0.600000X2.200000*%
%ADD26C,0.660400*%

G36*
X444520Y11942D02*
X444520Y11942D01*
X444539Y11940D01*
X444641Y11962D01*
X444743Y11979D01*
X444760Y11988D01*
X444780Y11992D01*
X444869Y12045D01*
X444960Y12094D01*
X444974Y12108D01*
X444991Y12118D01*
X445058Y12197D01*
X445130Y12272D01*
X445138Y12290D01*
X445151Y12305D01*
X445190Y12401D01*
X445233Y12495D01*
X445235Y12515D01*
X445243Y12533D01*
X445261Y12700D01*
X445261Y482600D01*
X445258Y482620D01*
X445260Y482639D01*
X445238Y482741D01*
X445222Y482843D01*
X445212Y482860D01*
X445208Y482880D01*
X445155Y482969D01*
X445106Y483060D01*
X445092Y483074D01*
X445082Y483091D01*
X445003Y483158D01*
X444928Y483230D01*
X444910Y483238D01*
X444895Y483251D01*
X444799Y483290D01*
X444705Y483333D01*
X444685Y483335D01*
X444667Y483343D01*
X444500Y483361D01*
X12700Y483361D01*
X12680Y483358D01*
X12661Y483360D01*
X12559Y483338D01*
X12457Y483322D01*
X12440Y483312D01*
X12420Y483308D01*
X12331Y483255D01*
X12240Y483206D01*
X12226Y483192D01*
X12209Y483182D01*
X12142Y483103D01*
X12071Y483028D01*
X12062Y483010D01*
X12049Y482995D01*
X12010Y482899D01*
X11967Y482805D01*
X11965Y482785D01*
X11957Y482767D01*
X11939Y482600D01*
X11939Y431807D01*
X11691Y419115D01*
X11692Y419109D01*
X11691Y419100D01*
X11811Y221571D01*
X11823Y221501D01*
X11825Y221429D01*
X11843Y221380D01*
X11851Y221329D01*
X11885Y221266D01*
X11909Y221198D01*
X11942Y221158D01*
X11966Y221111D01*
X12018Y221062D01*
X12063Y221006D01*
X12107Y220978D01*
X12145Y220942D01*
X12210Y220912D01*
X12270Y220873D01*
X12321Y220861D01*
X12368Y220839D01*
X12439Y220831D01*
X12508Y220813D01*
X12561Y220817D01*
X12613Y220812D01*
X12682Y220827D01*
X12754Y220833D01*
X12802Y220853D01*
X12853Y220864D01*
X12914Y220901D01*
X12980Y220929D01*
X13036Y220974D01*
X13064Y220990D01*
X13079Y221008D01*
X13111Y221034D01*
X20297Y228220D01*
X30503Y228220D01*
X37720Y221003D01*
X37720Y210797D01*
X30503Y203580D01*
X20297Y203580D01*
X13118Y210759D01*
X13059Y210801D01*
X13007Y210851D01*
X12960Y210873D01*
X12918Y210903D01*
X12849Y210924D01*
X12784Y210954D01*
X12733Y210960D01*
X12683Y210975D01*
X12611Y210973D01*
X12540Y210981D01*
X12489Y210970D01*
X12437Y210969D01*
X12369Y210944D01*
X12299Y210929D01*
X12255Y210902D01*
X12206Y210885D01*
X12150Y210839D01*
X12088Y210803D01*
X12055Y210763D01*
X12014Y210731D01*
X11975Y210670D01*
X11928Y210616D01*
X11909Y210568D01*
X11881Y210524D01*
X11864Y210454D01*
X11837Y210387D01*
X11829Y210316D01*
X11821Y210285D01*
X11823Y210262D01*
X11818Y210221D01*
X11842Y170802D01*
X11854Y170732D01*
X11856Y170660D01*
X11874Y170611D01*
X11882Y170560D01*
X11916Y170497D01*
X11940Y170429D01*
X11973Y170389D01*
X11997Y170342D01*
X12049Y170293D01*
X12094Y170237D01*
X12138Y170209D01*
X12176Y170173D01*
X12241Y170143D01*
X12301Y170104D01*
X12352Y170092D01*
X12399Y170070D01*
X12470Y170062D01*
X12539Y170044D01*
X12592Y170048D01*
X12644Y170043D01*
X12713Y170058D01*
X12785Y170063D01*
X12833Y170084D01*
X12884Y170095D01*
X12945Y170132D01*
X13011Y170160D01*
X13067Y170205D01*
X13095Y170221D01*
X13110Y170239D01*
X13142Y170265D01*
X20297Y177420D01*
X30503Y177420D01*
X37720Y170203D01*
X37720Y159997D01*
X30503Y152780D01*
X20297Y152780D01*
X13149Y159928D01*
X13090Y159970D01*
X13038Y160020D01*
X12991Y160042D01*
X12949Y160072D01*
X12880Y160093D01*
X12815Y160123D01*
X12764Y160129D01*
X12714Y160144D01*
X12642Y160142D01*
X12571Y160150D01*
X12520Y160139D01*
X12468Y160138D01*
X12400Y160113D01*
X12330Y160098D01*
X12286Y160071D01*
X12237Y160054D01*
X12181Y160008D01*
X12119Y159972D01*
X12086Y159932D01*
X12045Y159900D01*
X12006Y159839D01*
X11959Y159785D01*
X11940Y159737D01*
X11912Y159693D01*
X11895Y159623D01*
X11868Y159556D01*
X11860Y159485D01*
X11852Y159454D01*
X11854Y159431D01*
X11849Y159390D01*
X11939Y12700D01*
X11942Y12680D01*
X11940Y12661D01*
X11962Y12559D01*
X11979Y12457D01*
X11988Y12439D01*
X11992Y12420D01*
X12045Y12331D01*
X12094Y12240D01*
X12108Y12226D01*
X12118Y12209D01*
X12197Y12142D01*
X12272Y12070D01*
X12290Y12062D01*
X12305Y12049D01*
X12402Y12010D01*
X12495Y11967D01*
X12515Y11965D01*
X12533Y11957D01*
X12700Y11939D01*
X444500Y11939D01*
X444520Y11942D01*
G37*
%LPC*%
G36*
X272914Y67944D02*
X272914Y67944D01*
X267334Y73524D01*
X267334Y81416D01*
X267588Y81669D01*
X267600Y81686D01*
X267615Y81698D01*
X267671Y81785D01*
X267732Y81869D01*
X267737Y81888D01*
X267748Y81905D01*
X267774Y82006D01*
X267804Y82104D01*
X267803Y82124D01*
X267808Y82144D01*
X267800Y82247D01*
X267798Y82350D01*
X267791Y82369D01*
X267789Y82389D01*
X267749Y82484D01*
X267713Y82581D01*
X267701Y82597D01*
X267693Y82615D01*
X267588Y82746D01*
X259841Y90493D01*
X259841Y133535D01*
X261404Y135098D01*
X267238Y140932D01*
X267291Y141006D01*
X267351Y141076D01*
X267363Y141106D01*
X267382Y141132D01*
X267409Y141219D01*
X267443Y141304D01*
X267447Y141345D01*
X267454Y141367D01*
X267453Y141399D01*
X267461Y141470D01*
X267461Y161544D01*
X267458Y161564D01*
X267460Y161583D01*
X267438Y161685D01*
X267422Y161787D01*
X267412Y161804D01*
X267408Y161824D01*
X267355Y161913D01*
X267306Y162004D01*
X267292Y162018D01*
X267282Y162035D01*
X267203Y162102D01*
X267128Y162174D01*
X267110Y162182D01*
X267095Y162195D01*
X266999Y162234D01*
X266905Y162277D01*
X266885Y162279D01*
X266867Y162287D01*
X266700Y162305D01*
X266686Y162305D01*
X266672Y162303D01*
X266661Y162304D01*
X266656Y162303D01*
X266647Y162304D01*
X266545Y162282D01*
X266443Y162266D01*
X266426Y162256D01*
X266406Y162252D01*
X266317Y162199D01*
X266226Y162150D01*
X266212Y162136D01*
X266195Y162126D01*
X266128Y162047D01*
X266056Y161972D01*
X266048Y161954D01*
X266035Y161939D01*
X265996Y161843D01*
X265953Y161749D01*
X265951Y161729D01*
X265943Y161711D01*
X265925Y161544D01*
X265925Y161468D01*
X265032Y160575D01*
X241768Y160575D01*
X240875Y161468D01*
X240875Y168732D01*
X241768Y169625D01*
X265032Y169625D01*
X265925Y168732D01*
X265925Y167640D01*
X265928Y167620D01*
X265926Y167601D01*
X265948Y167499D01*
X265964Y167397D01*
X265974Y167380D01*
X265978Y167360D01*
X266031Y167271D01*
X266080Y167180D01*
X266094Y167166D01*
X266104Y167149D01*
X266183Y167082D01*
X266258Y167010D01*
X266276Y167002D01*
X266291Y166989D01*
X266387Y166950D01*
X266481Y166907D01*
X266501Y166905D01*
X266519Y166897D01*
X266686Y166879D01*
X269171Y166879D01*
X270472Y165578D01*
X272035Y164015D01*
X272035Y144780D01*
X272038Y144760D01*
X272036Y144741D01*
X272058Y144639D01*
X272074Y144537D01*
X272084Y144520D01*
X272088Y144500D01*
X272141Y144411D01*
X272190Y144320D01*
X272204Y144306D01*
X272214Y144289D01*
X272293Y144222D01*
X272368Y144150D01*
X272386Y144142D01*
X272401Y144129D01*
X272497Y144090D01*
X272591Y144047D01*
X272611Y144045D01*
X272629Y144037D01*
X272796Y144019D01*
X282887Y144019D01*
X289268Y137638D01*
X289342Y137585D01*
X289412Y137525D01*
X289442Y137513D01*
X289468Y137494D01*
X289555Y137467D01*
X289640Y137433D01*
X289681Y137429D01*
X289703Y137422D01*
X289735Y137423D01*
X289807Y137415D01*
X293378Y137415D01*
X293448Y137426D01*
X293520Y137428D01*
X293569Y137446D01*
X293620Y137454D01*
X293684Y137488D01*
X293751Y137513D01*
X293792Y137545D01*
X293838Y137570D01*
X293887Y137622D01*
X293943Y137666D01*
X293971Y137710D01*
X294007Y137748D01*
X294037Y137813D01*
X294076Y137873D01*
X294089Y137924D01*
X294111Y137971D01*
X294119Y138042D01*
X294136Y138112D01*
X294132Y138164D01*
X294138Y138215D01*
X294123Y138286D01*
X294117Y138357D01*
X294097Y138405D01*
X294086Y138456D01*
X294049Y138517D01*
X294021Y138583D01*
X293976Y138639D01*
X293959Y138667D01*
X293942Y138682D01*
X293916Y138714D01*
X287312Y145318D01*
X285749Y146881D01*
X285749Y175260D01*
X285746Y175280D01*
X285748Y175299D01*
X285726Y175401D01*
X285710Y175503D01*
X285700Y175520D01*
X285696Y175540D01*
X285643Y175629D01*
X285594Y175720D01*
X285580Y175734D01*
X285570Y175751D01*
X285491Y175818D01*
X285416Y175890D01*
X285398Y175898D01*
X285383Y175911D01*
X285287Y175950D01*
X285193Y175993D01*
X285173Y175995D01*
X285155Y176003D01*
X284988Y176021D01*
X266686Y176021D01*
X266666Y176018D01*
X266647Y176020D01*
X266545Y175998D01*
X266443Y175982D01*
X266426Y175972D01*
X266406Y175968D01*
X266317Y175915D01*
X266226Y175866D01*
X266212Y175852D01*
X266195Y175842D01*
X266128Y175763D01*
X266056Y175688D01*
X266048Y175670D01*
X266035Y175655D01*
X265996Y175559D01*
X265953Y175465D01*
X265951Y175445D01*
X265943Y175427D01*
X265925Y175260D01*
X265925Y174168D01*
X265032Y173275D01*
X241768Y173275D01*
X240875Y174168D01*
X240875Y181432D01*
X241768Y182325D01*
X265032Y182325D01*
X265925Y181432D01*
X265925Y181356D01*
X265928Y181336D01*
X265926Y181317D01*
X265948Y181215D01*
X265964Y181113D01*
X265974Y181096D01*
X265978Y181076D01*
X266031Y180987D01*
X266080Y180896D01*
X266094Y180882D01*
X266104Y180865D01*
X266183Y180798D01*
X266258Y180726D01*
X266276Y180718D01*
X266291Y180705D01*
X266387Y180666D01*
X266481Y180623D01*
X266501Y180621D01*
X266519Y180613D01*
X266686Y180595D01*
X268224Y180595D01*
X268244Y180598D01*
X268263Y180596D01*
X268365Y180618D01*
X268467Y180634D01*
X268484Y180644D01*
X268504Y180648D01*
X268593Y180701D01*
X268684Y180750D01*
X268698Y180764D01*
X268715Y180774D01*
X268782Y180853D01*
X268854Y180928D01*
X268862Y180946D01*
X268875Y180961D01*
X268914Y181057D01*
X268957Y181151D01*
X268959Y181171D01*
X268967Y181189D01*
X268985Y181356D01*
X268985Y210573D01*
X268971Y210664D01*
X268963Y210754D01*
X268951Y210784D01*
X268946Y210816D01*
X268903Y210897D01*
X268867Y210981D01*
X268841Y211013D01*
X268830Y211034D01*
X268807Y211056D01*
X268762Y211112D01*
X267224Y212650D01*
X267166Y212692D01*
X267114Y212741D01*
X267067Y212763D01*
X267025Y212793D01*
X266956Y212814D01*
X266891Y212845D01*
X266839Y212850D01*
X266789Y212866D01*
X266718Y212864D01*
X266647Y212872D01*
X266596Y212861D01*
X266544Y212859D01*
X266476Y212835D01*
X266406Y212820D01*
X266361Y212793D01*
X266313Y212775D01*
X266257Y212730D01*
X266195Y212693D01*
X266161Y212654D01*
X266121Y212621D01*
X266082Y212561D01*
X266035Y212506D01*
X266016Y212458D01*
X265988Y212414D01*
X265970Y212345D01*
X265949Y212293D01*
X265032Y211375D01*
X241768Y211375D01*
X240875Y212268D01*
X240875Y219532D01*
X241768Y220425D01*
X251460Y220425D01*
X251480Y220428D01*
X251499Y220426D01*
X251601Y220448D01*
X251703Y220464D01*
X251720Y220474D01*
X251740Y220478D01*
X251829Y220531D01*
X251920Y220580D01*
X251934Y220594D01*
X251951Y220604D01*
X252018Y220683D01*
X252090Y220758D01*
X252098Y220776D01*
X252111Y220791D01*
X252150Y220887D01*
X252193Y220981D01*
X252195Y221001D01*
X252203Y221019D01*
X252221Y221186D01*
X252221Y223314D01*
X252218Y223334D01*
X252220Y223353D01*
X252198Y223455D01*
X252182Y223557D01*
X252172Y223574D01*
X252168Y223594D01*
X252115Y223683D01*
X252066Y223774D01*
X252052Y223788D01*
X252042Y223805D01*
X251963Y223872D01*
X251888Y223944D01*
X251870Y223952D01*
X251855Y223965D01*
X251759Y224004D01*
X251665Y224047D01*
X251645Y224049D01*
X251627Y224057D01*
X251460Y224075D01*
X241768Y224075D01*
X240875Y224968D01*
X240875Y225552D01*
X240872Y225572D01*
X240874Y225591D01*
X240852Y225693D01*
X240836Y225795D01*
X240826Y225812D01*
X240822Y225832D01*
X240769Y225921D01*
X240720Y226012D01*
X240706Y226026D01*
X240696Y226043D01*
X240617Y226110D01*
X240542Y226182D01*
X240524Y226190D01*
X240509Y226203D01*
X240413Y226242D01*
X240319Y226285D01*
X240299Y226287D01*
X240281Y226295D01*
X240114Y226313D01*
X220719Y226313D01*
X220628Y226299D01*
X220538Y226291D01*
X220508Y226279D01*
X220476Y226274D01*
X220395Y226231D01*
X220311Y226195D01*
X220279Y226169D01*
X220258Y226158D01*
X220236Y226135D01*
X220180Y226090D01*
X177470Y183380D01*
X177458Y183364D01*
X177443Y183351D01*
X177387Y183264D01*
X177326Y183180D01*
X177321Y183161D01*
X177310Y183144D01*
X177284Y183044D01*
X177254Y182945D01*
X177255Y182925D01*
X177250Y182906D01*
X177258Y182803D01*
X177260Y182699D01*
X177267Y182681D01*
X177269Y182661D01*
X177309Y182566D01*
X177345Y182468D01*
X177357Y182453D01*
X177365Y182434D01*
X177470Y182303D01*
X177657Y182117D01*
X178817Y179316D01*
X178817Y176284D01*
X177657Y173483D01*
X175513Y171339D01*
X172712Y170179D01*
X157488Y170179D01*
X154687Y171339D01*
X152543Y173483D01*
X151383Y176284D01*
X151383Y179316D01*
X152543Y182117D01*
X154687Y184261D01*
X157488Y185421D01*
X172727Y185421D01*
X172818Y185435D01*
X172908Y185443D01*
X172938Y185455D01*
X172970Y185460D01*
X173051Y185503D01*
X173135Y185539D01*
X173167Y185565D01*
X173188Y185576D01*
X173210Y185599D01*
X173266Y185644D01*
X218509Y230887D01*
X240114Y230887D01*
X240134Y230890D01*
X240153Y230888D01*
X240255Y230910D01*
X240357Y230926D01*
X240374Y230936D01*
X240394Y230940D01*
X240483Y230993D01*
X240574Y231042D01*
X240588Y231056D01*
X240605Y231066D01*
X240672Y231145D01*
X240744Y231220D01*
X240752Y231238D01*
X240765Y231253D01*
X240804Y231349D01*
X240847Y231443D01*
X240849Y231463D01*
X240857Y231481D01*
X240875Y231648D01*
X240875Y232232D01*
X241768Y233125D01*
X242316Y233125D01*
X242336Y233128D01*
X242355Y233126D01*
X242457Y233148D01*
X242559Y233164D01*
X242576Y233174D01*
X242596Y233178D01*
X242685Y233231D01*
X242776Y233280D01*
X242790Y233294D01*
X242807Y233304D01*
X242874Y233383D01*
X242946Y233458D01*
X242954Y233476D01*
X242967Y233491D01*
X243006Y233587D01*
X243049Y233681D01*
X243051Y233701D01*
X243059Y233719D01*
X243077Y233886D01*
X243077Y282202D01*
X243075Y282214D01*
X243076Y282222D01*
X243067Y282265D01*
X243063Y282292D01*
X243055Y282383D01*
X243043Y282412D01*
X243038Y282444D01*
X242995Y282525D01*
X242959Y282609D01*
X242933Y282641D01*
X242922Y282662D01*
X242899Y282684D01*
X242854Y282740D01*
X215684Y309910D01*
X214121Y311473D01*
X214121Y329014D01*
X214118Y329034D01*
X214120Y329053D01*
X214098Y329155D01*
X214082Y329257D01*
X214072Y329274D01*
X214068Y329294D01*
X214015Y329383D01*
X213966Y329474D01*
X213952Y329488D01*
X213942Y329505D01*
X213863Y329572D01*
X213788Y329644D01*
X213770Y329652D01*
X213755Y329665D01*
X213659Y329704D01*
X213565Y329747D01*
X213545Y329749D01*
X213527Y329757D01*
X213360Y329775D01*
X212268Y329775D01*
X211375Y330668D01*
X211375Y353932D01*
X212268Y354825D01*
X219532Y354825D01*
X220425Y353932D01*
X220425Y330668D01*
X219532Y329775D01*
X219456Y329775D01*
X219436Y329772D01*
X219417Y329774D01*
X219315Y329752D01*
X219213Y329736D01*
X219196Y329726D01*
X219176Y329722D01*
X219087Y329669D01*
X218996Y329620D01*
X218982Y329606D01*
X218965Y329596D01*
X218898Y329517D01*
X218826Y329442D01*
X218818Y329424D01*
X218805Y329409D01*
X218766Y329313D01*
X218723Y329219D01*
X218721Y329199D01*
X218713Y329181D01*
X218695Y329014D01*
X218695Y313682D01*
X218709Y313592D01*
X218717Y313501D01*
X218729Y313472D01*
X218734Y313440D01*
X218777Y313359D01*
X218813Y313275D01*
X218839Y313243D01*
X218850Y313222D01*
X218873Y313200D01*
X218918Y313144D01*
X246088Y285974D01*
X247651Y284411D01*
X247651Y233886D01*
X247654Y233866D01*
X247652Y233847D01*
X247674Y233745D01*
X247690Y233643D01*
X247700Y233626D01*
X247704Y233606D01*
X247757Y233517D01*
X247806Y233426D01*
X247820Y233412D01*
X247830Y233395D01*
X247909Y233328D01*
X247984Y233256D01*
X248002Y233248D01*
X248017Y233235D01*
X248113Y233196D01*
X248207Y233153D01*
X248227Y233151D01*
X248245Y233143D01*
X248412Y233125D01*
X265032Y233125D01*
X265925Y232232D01*
X265925Y224968D01*
X265032Y224075D01*
X257556Y224075D01*
X257536Y224072D01*
X257517Y224074D01*
X257415Y224052D01*
X257313Y224036D01*
X257296Y224026D01*
X257276Y224022D01*
X257187Y223969D01*
X257096Y223920D01*
X257082Y223906D01*
X257065Y223896D01*
X256998Y223817D01*
X256926Y223742D01*
X256918Y223724D01*
X256905Y223709D01*
X256866Y223613D01*
X256823Y223519D01*
X256821Y223499D01*
X256813Y223481D01*
X256795Y223314D01*
X256795Y221186D01*
X256798Y221166D01*
X256796Y221147D01*
X256818Y221045D01*
X256834Y220943D01*
X256844Y220926D01*
X256848Y220906D01*
X256901Y220817D01*
X256950Y220726D01*
X256964Y220712D01*
X256974Y220695D01*
X257053Y220628D01*
X257128Y220556D01*
X257146Y220548D01*
X257161Y220535D01*
X257257Y220496D01*
X257351Y220453D01*
X257371Y220451D01*
X257389Y220443D01*
X257556Y220425D01*
X265032Y220425D01*
X265925Y219532D01*
X265925Y219456D01*
X265928Y219436D01*
X265926Y219417D01*
X265948Y219315D01*
X265964Y219213D01*
X265974Y219196D01*
X265978Y219176D01*
X266031Y219087D01*
X266080Y218996D01*
X266094Y218982D01*
X266104Y218965D01*
X266183Y218898D01*
X266258Y218826D01*
X266276Y218818D01*
X266291Y218805D01*
X266387Y218766D01*
X266481Y218723D01*
X266501Y218721D01*
X266519Y218713D01*
X266686Y218695D01*
X267647Y218695D01*
X273559Y212783D01*
X273559Y181356D01*
X273562Y181336D01*
X273560Y181317D01*
X273582Y181215D01*
X273598Y181113D01*
X273608Y181096D01*
X273612Y181076D01*
X273665Y180987D01*
X273714Y180896D01*
X273728Y180882D01*
X273738Y180865D01*
X273817Y180798D01*
X273892Y180726D01*
X273910Y180718D01*
X273925Y180705D01*
X274021Y180666D01*
X274115Y180623D01*
X274135Y180621D01*
X274153Y180613D01*
X274320Y180595D01*
X292114Y180595D01*
X292134Y180598D01*
X292153Y180596D01*
X292255Y180618D01*
X292357Y180634D01*
X292374Y180644D01*
X292394Y180648D01*
X292483Y180701D01*
X292574Y180750D01*
X292588Y180764D01*
X292605Y180774D01*
X292672Y180853D01*
X292744Y180928D01*
X292752Y180946D01*
X292765Y180961D01*
X292804Y181057D01*
X292847Y181151D01*
X292849Y181171D01*
X292857Y181189D01*
X292875Y181356D01*
X292875Y181440D01*
X292918Y181506D01*
X292978Y181591D01*
X292984Y181610D01*
X292995Y181626D01*
X293020Y181727D01*
X293051Y181826D01*
X293050Y181846D01*
X293055Y181865D01*
X293047Y181968D01*
X293044Y182072D01*
X293037Y182090D01*
X293036Y182110D01*
X292995Y182205D01*
X292960Y182303D01*
X292947Y182318D01*
X292939Y182336D01*
X292835Y182467D01*
X285749Y189553D01*
X285749Y200591D01*
X290137Y204979D01*
X292114Y204979D01*
X292134Y204982D01*
X292153Y204980D01*
X292255Y205002D01*
X292357Y205018D01*
X292374Y205028D01*
X292394Y205032D01*
X292483Y205085D01*
X292574Y205134D01*
X292588Y205148D01*
X292605Y205158D01*
X292672Y205237D01*
X292744Y205312D01*
X292752Y205330D01*
X292765Y205345D01*
X292804Y205441D01*
X292847Y205535D01*
X292849Y205555D01*
X292857Y205573D01*
X292875Y205740D01*
X292875Y206832D01*
X293768Y207725D01*
X317032Y207725D01*
X317925Y206832D01*
X317925Y199568D01*
X317032Y198675D01*
X293768Y198675D01*
X292846Y199598D01*
X292844Y199603D01*
X292836Y199654D01*
X292802Y199718D01*
X292777Y199785D01*
X292745Y199826D01*
X292720Y199872D01*
X292668Y199921D01*
X292624Y199977D01*
X292580Y200005D01*
X292542Y200041D01*
X292477Y200071D01*
X292417Y200110D01*
X292366Y200123D01*
X292319Y200145D01*
X292248Y200153D01*
X292178Y200170D01*
X292126Y200166D01*
X292075Y200172D01*
X292004Y200157D01*
X291933Y200151D01*
X291885Y200131D01*
X291834Y200120D01*
X291773Y200083D01*
X291707Y200055D01*
X291651Y200010D01*
X291623Y199993D01*
X291608Y199976D01*
X291576Y199950D01*
X290546Y198920D01*
X290493Y198846D01*
X290433Y198776D01*
X290421Y198746D01*
X290402Y198720D01*
X290375Y198633D01*
X290341Y198548D01*
X290337Y198507D01*
X290330Y198485D01*
X290331Y198453D01*
X290323Y198381D01*
X290323Y191763D01*
X290337Y191673D01*
X290345Y191582D01*
X290357Y191552D01*
X290362Y191520D01*
X290405Y191439D01*
X290441Y191355D01*
X290467Y191323D01*
X290478Y191302D01*
X290501Y191280D01*
X290546Y191224D01*
X291576Y190194D01*
X291634Y190152D01*
X291686Y190103D01*
X291733Y190081D01*
X291775Y190051D01*
X291844Y190030D01*
X291909Y189999D01*
X291961Y189994D01*
X292011Y189978D01*
X292082Y189980D01*
X292153Y189972D01*
X292204Y189983D01*
X292256Y189985D01*
X292324Y190009D01*
X292394Y190024D01*
X292439Y190051D01*
X292487Y190069D01*
X292543Y190114D01*
X292605Y190151D01*
X292639Y190190D01*
X292679Y190223D01*
X292718Y190283D01*
X292765Y190338D01*
X292784Y190386D01*
X292812Y190430D01*
X292830Y190499D01*
X292857Y190566D01*
X292865Y190637D01*
X292873Y190668D01*
X292871Y190692D01*
X292875Y190732D01*
X292875Y194132D01*
X293768Y195025D01*
X317032Y195025D01*
X317925Y194132D01*
X317925Y193548D01*
X317928Y193528D01*
X317926Y193509D01*
X317948Y193407D01*
X317964Y193305D01*
X317974Y193288D01*
X317978Y193268D01*
X318031Y193179D01*
X318080Y193088D01*
X318094Y193074D01*
X318104Y193057D01*
X318183Y192990D01*
X318258Y192918D01*
X318276Y192910D01*
X318291Y192897D01*
X318387Y192858D01*
X318481Y192815D01*
X318501Y192813D01*
X318519Y192805D01*
X318686Y192787D01*
X318777Y192787D01*
X318868Y192801D01*
X318958Y192809D01*
X318988Y192821D01*
X319020Y192826D01*
X319101Y192869D01*
X319185Y192905D01*
X319217Y192931D01*
X319238Y192942D01*
X319260Y192965D01*
X319316Y193010D01*
X320578Y194272D01*
X320631Y194346D01*
X320691Y194416D01*
X320703Y194446D01*
X320722Y194472D01*
X320749Y194559D01*
X320783Y194644D01*
X320787Y194685D01*
X320794Y194707D01*
X320793Y194739D01*
X320801Y194811D01*
X320801Y248673D01*
X320787Y248764D01*
X320779Y248854D01*
X320767Y248884D01*
X320762Y248916D01*
X320719Y248997D01*
X320683Y249081D01*
X320657Y249113D01*
X320646Y249134D01*
X320623Y249156D01*
X320616Y249165D01*
X320608Y249178D01*
X320599Y249186D01*
X320578Y249212D01*
X314705Y255085D01*
X314705Y256413D01*
X314702Y256433D01*
X314704Y256452D01*
X314682Y256554D01*
X314666Y256656D01*
X314656Y256673D01*
X314652Y256693D01*
X314599Y256782D01*
X314550Y256873D01*
X314536Y256887D01*
X314526Y256904D01*
X314447Y256971D01*
X314372Y257043D01*
X314354Y257051D01*
X314339Y257064D01*
X314243Y257103D01*
X314149Y257146D01*
X314129Y257148D01*
X314111Y257156D01*
X313944Y257174D01*
X313554Y257174D01*
X307974Y262754D01*
X307974Y270646D01*
X313554Y276226D01*
X321446Y276226D01*
X327026Y270646D01*
X327026Y262754D01*
X321446Y257174D01*
X320921Y257174D01*
X320851Y257163D01*
X320779Y257161D01*
X320730Y257143D01*
X320679Y257135D01*
X320615Y257101D01*
X320548Y257076D01*
X320507Y257044D01*
X320461Y257019D01*
X320412Y256967D01*
X320356Y256923D01*
X320328Y256879D01*
X320292Y256841D01*
X320262Y256776D01*
X320223Y256716D01*
X320210Y256665D01*
X320188Y256618D01*
X320180Y256547D01*
X320163Y256477D01*
X320167Y256425D01*
X320161Y256374D01*
X320176Y256303D01*
X320182Y256232D01*
X320202Y256184D01*
X320213Y256133D01*
X320250Y256072D01*
X320278Y256006D01*
X320323Y255950D01*
X320340Y255922D01*
X320357Y255907D01*
X320383Y255875D01*
X325375Y250883D01*
X325375Y192601D01*
X320987Y188213D01*
X318686Y188213D01*
X318666Y188210D01*
X318647Y188212D01*
X318545Y188190D01*
X318443Y188174D01*
X318426Y188164D01*
X318406Y188160D01*
X318317Y188107D01*
X318226Y188058D01*
X318212Y188044D01*
X318195Y188034D01*
X318128Y187955D01*
X318056Y187880D01*
X318048Y187862D01*
X318035Y187847D01*
X317996Y187751D01*
X317953Y187657D01*
X317951Y187637D01*
X317943Y187619D01*
X317925Y187452D01*
X317925Y187021D01*
X317928Y187003D01*
X317926Y186987D01*
X317940Y186920D01*
X317947Y186840D01*
X317959Y186810D01*
X317964Y186778D01*
X317976Y186756D01*
X317978Y186746D01*
X318005Y186702D01*
X318007Y186697D01*
X318043Y186613D01*
X318069Y186581D01*
X318080Y186560D01*
X318102Y186539D01*
X318104Y186535D01*
X318107Y186533D01*
X318148Y186482D01*
X324320Y180310D01*
X324394Y180257D01*
X324464Y180197D01*
X324494Y180185D01*
X324520Y180166D01*
X324607Y180139D01*
X324692Y180105D01*
X324733Y180101D01*
X324755Y180094D01*
X324787Y180095D01*
X324859Y180087D01*
X328135Y180087D01*
X330963Y177259D01*
X330963Y173261D01*
X328135Y170433D01*
X324137Y170433D01*
X321309Y173261D01*
X321309Y176537D01*
X321295Y176628D01*
X321287Y176718D01*
X321275Y176748D01*
X321270Y176780D01*
X321227Y176861D01*
X321191Y176945D01*
X321165Y176977D01*
X321154Y176998D01*
X321131Y177020D01*
X321086Y177076D01*
X319224Y178938D01*
X319166Y178980D01*
X319114Y179029D01*
X319067Y179051D01*
X319025Y179081D01*
X318956Y179102D01*
X318891Y179133D01*
X318839Y179138D01*
X318789Y179154D01*
X318718Y179152D01*
X318647Y179160D01*
X318596Y179149D01*
X318544Y179147D01*
X318476Y179123D01*
X318406Y179108D01*
X318361Y179081D01*
X318313Y179063D01*
X318257Y179018D01*
X318195Y178981D01*
X318161Y178942D01*
X318121Y178909D01*
X318082Y178849D01*
X318035Y178794D01*
X318016Y178746D01*
X317988Y178702D01*
X317970Y178633D01*
X317943Y178566D01*
X317935Y178495D01*
X317927Y178464D01*
X317929Y178440D01*
X317925Y178400D01*
X317925Y174168D01*
X317032Y173275D01*
X293768Y173275D01*
X292875Y174168D01*
X292875Y175260D01*
X292872Y175280D01*
X292874Y175299D01*
X292852Y175401D01*
X292836Y175503D01*
X292826Y175520D01*
X292822Y175540D01*
X292769Y175629D01*
X292720Y175720D01*
X292706Y175734D01*
X292696Y175751D01*
X292617Y175818D01*
X292542Y175890D01*
X292524Y175898D01*
X292509Y175911D01*
X292413Y175950D01*
X292319Y175993D01*
X292299Y175995D01*
X292281Y176003D01*
X292114Y176021D01*
X291084Y176021D01*
X291064Y176018D01*
X291045Y176020D01*
X290943Y175998D01*
X290841Y175982D01*
X290824Y175972D01*
X290804Y175968D01*
X290715Y175915D01*
X290624Y175866D01*
X290610Y175852D01*
X290593Y175842D01*
X290526Y175763D01*
X290454Y175688D01*
X290446Y175670D01*
X290433Y175655D01*
X290394Y175559D01*
X290351Y175465D01*
X290349Y175445D01*
X290341Y175427D01*
X290323Y175260D01*
X290323Y149091D01*
X290337Y149000D01*
X290345Y148910D01*
X290357Y148880D01*
X290362Y148848D01*
X290405Y148767D01*
X290441Y148683D01*
X290467Y148651D01*
X290478Y148630D01*
X290501Y148608D01*
X290546Y148552D01*
X345187Y93911D01*
X345187Y84582D01*
X345190Y84562D01*
X345188Y84543D01*
X345210Y84441D01*
X345226Y84339D01*
X345236Y84322D01*
X345240Y84302D01*
X345293Y84213D01*
X345342Y84122D01*
X345356Y84108D01*
X345366Y84091D01*
X345445Y84024D01*
X345520Y83952D01*
X345538Y83944D01*
X345553Y83931D01*
X345649Y83892D01*
X345743Y83849D01*
X345763Y83847D01*
X345781Y83839D01*
X345948Y83821D01*
X346057Y83821D01*
X350521Y79357D01*
X350521Y73043D01*
X346057Y68579D01*
X339743Y68579D01*
X335279Y73043D01*
X335279Y79357D01*
X339743Y83821D01*
X339852Y83821D01*
X339872Y83824D01*
X339891Y83822D01*
X339993Y83844D01*
X340095Y83860D01*
X340112Y83870D01*
X340132Y83874D01*
X340221Y83927D01*
X340312Y83976D01*
X340326Y83990D01*
X340343Y84000D01*
X340410Y84079D01*
X340482Y84154D01*
X340490Y84172D01*
X340503Y84187D01*
X340542Y84283D01*
X340585Y84377D01*
X340587Y84397D01*
X340595Y84415D01*
X340613Y84582D01*
X340613Y91701D01*
X340599Y91792D01*
X340591Y91882D01*
X340579Y91912D01*
X340574Y91944D01*
X340531Y92025D01*
X340495Y92109D01*
X340469Y92141D01*
X340458Y92162D01*
X340435Y92184D01*
X340390Y92240D01*
X297210Y135420D01*
X297152Y135462D01*
X297100Y135511D01*
X297053Y135533D01*
X297011Y135563D01*
X296942Y135584D01*
X296877Y135615D01*
X296825Y135620D01*
X296775Y135636D01*
X296704Y135634D01*
X296633Y135642D01*
X296582Y135631D01*
X296530Y135629D01*
X296462Y135605D01*
X296392Y135590D01*
X296347Y135563D01*
X296299Y135545D01*
X296243Y135500D01*
X296181Y135463D01*
X296147Y135424D01*
X296107Y135391D01*
X296068Y135331D01*
X296021Y135276D01*
X296002Y135228D01*
X295974Y135184D01*
X295956Y135115D01*
X295929Y135048D01*
X295921Y134977D01*
X295913Y134946D01*
X295915Y134922D01*
X295911Y134882D01*
X295911Y130589D01*
X293083Y127761D01*
X289085Y127761D01*
X287685Y129161D01*
X287627Y129203D01*
X287575Y129252D01*
X287528Y129274D01*
X287486Y129304D01*
X287417Y129325D01*
X287352Y129356D01*
X287300Y129361D01*
X287250Y129377D01*
X287179Y129375D01*
X287108Y129383D01*
X287057Y129372D01*
X287005Y129370D01*
X286937Y129346D01*
X286867Y129330D01*
X286822Y129304D01*
X286774Y129286D01*
X286718Y129241D01*
X286656Y129204D01*
X286622Y129165D01*
X286582Y129132D01*
X286543Y129072D01*
X286496Y129017D01*
X286477Y128969D01*
X286449Y128925D01*
X286431Y128856D01*
X286404Y128789D01*
X286396Y128718D01*
X286388Y128687D01*
X286390Y128663D01*
X286386Y128622D01*
X286386Y123054D01*
X280806Y117474D01*
X272914Y117474D01*
X267334Y123054D01*
X267334Y130946D01*
X272914Y136526D01*
X280806Y136526D01*
X284958Y132374D01*
X285016Y132332D01*
X285068Y132282D01*
X285115Y132261D01*
X285157Y132230D01*
X285226Y132209D01*
X285291Y132179D01*
X285343Y132173D01*
X285393Y132158D01*
X285464Y132160D01*
X285535Y132152D01*
X285586Y132163D01*
X285638Y132164D01*
X285706Y132189D01*
X285776Y132204D01*
X285821Y132231D01*
X285869Y132249D01*
X285925Y132293D01*
X285987Y132330D01*
X286021Y132370D01*
X286061Y132402D01*
X286100Y132463D01*
X286147Y132517D01*
X286166Y132565D01*
X286194Y132609D01*
X286212Y132679D01*
X286239Y132745D01*
X286247Y132817D01*
X286255Y132848D01*
X286253Y132871D01*
X286257Y132912D01*
X286257Y133865D01*
X286243Y133956D01*
X286235Y134046D01*
X286223Y134076D01*
X286218Y134108D01*
X286175Y134189D01*
X286139Y134273D01*
X286113Y134305D01*
X286102Y134326D01*
X286079Y134348D01*
X286034Y134404D01*
X281216Y139222D01*
X281142Y139275D01*
X281072Y139335D01*
X281042Y139347D01*
X281016Y139366D01*
X280929Y139393D01*
X280844Y139427D01*
X280803Y139431D01*
X280781Y139438D01*
X280749Y139437D01*
X280677Y139445D01*
X272534Y139445D01*
X272444Y139431D01*
X272353Y139423D01*
X272324Y139411D01*
X272292Y139406D01*
X272211Y139363D01*
X272127Y139327D01*
X272095Y139301D01*
X272074Y139290D01*
X272052Y139267D01*
X271996Y139222D01*
X264638Y131864D01*
X264585Y131790D01*
X264525Y131720D01*
X264513Y131690D01*
X264494Y131664D01*
X264467Y131577D01*
X264433Y131492D01*
X264429Y131451D01*
X264422Y131429D01*
X264423Y131397D01*
X264415Y131325D01*
X264415Y92703D01*
X264429Y92612D01*
X264437Y92522D01*
X264449Y92492D01*
X264454Y92460D01*
X264497Y92379D01*
X264533Y92295D01*
X264559Y92263D01*
X264570Y92242D01*
X264593Y92220D01*
X264638Y92164D01*
X270822Y85980D01*
X270838Y85968D01*
X270851Y85953D01*
X270927Y85904D01*
X270942Y85890D01*
X270952Y85887D01*
X271022Y85836D01*
X271041Y85831D01*
X271057Y85820D01*
X271158Y85794D01*
X271257Y85764D01*
X271277Y85765D01*
X271296Y85760D01*
X271399Y85768D01*
X271503Y85770D01*
X271521Y85777D01*
X271541Y85779D01*
X271636Y85819D01*
X271734Y85855D01*
X271749Y85867D01*
X271768Y85875D01*
X271840Y85933D01*
X271843Y85935D01*
X271847Y85939D01*
X271899Y85980D01*
X272914Y86996D01*
X280806Y86996D01*
X286386Y81416D01*
X286386Y73524D01*
X280806Y67944D01*
X272914Y67944D01*
G37*
%LPD*%
%LPC*%
G36*
X415943Y233679D02*
X415943Y233679D01*
X411479Y238143D01*
X411479Y244582D01*
X411487Y244615D01*
X411518Y244714D01*
X411517Y244734D01*
X411522Y244753D01*
X411514Y244857D01*
X411512Y244960D01*
X411505Y244979D01*
X411503Y244999D01*
X411463Y245094D01*
X411427Y245191D01*
X411415Y245207D01*
X411407Y245225D01*
X411302Y245356D01*
X410756Y245902D01*
X410682Y245956D01*
X410612Y246015D01*
X410582Y246027D01*
X410556Y246046D01*
X410469Y246073D01*
X410384Y246107D01*
X410343Y246111D01*
X410321Y246118D01*
X410289Y246117D01*
X410217Y246125D01*
X393769Y246125D01*
X323888Y316006D01*
X323814Y316059D01*
X323744Y316119D01*
X323714Y316131D01*
X323688Y316150D01*
X323601Y316177D01*
X323516Y316211D01*
X323475Y316215D01*
X323453Y316222D01*
X323421Y316221D01*
X323349Y316229D01*
X242599Y316229D01*
X242509Y316215D01*
X242418Y316207D01*
X242388Y316195D01*
X242356Y316190D01*
X242275Y316147D01*
X242191Y316111D01*
X242159Y316085D01*
X242139Y316074D01*
X242116Y316051D01*
X242060Y316006D01*
X239743Y313689D01*
X235745Y313689D01*
X232917Y316517D01*
X232917Y319793D01*
X232903Y319884D01*
X232895Y319974D01*
X232883Y320004D01*
X232878Y320036D01*
X232835Y320117D01*
X232799Y320201D01*
X232773Y320233D01*
X232762Y320254D01*
X232739Y320276D01*
X232694Y320332D01*
X226313Y326713D01*
X226313Y329014D01*
X226310Y329034D01*
X226312Y329053D01*
X226290Y329155D01*
X226274Y329257D01*
X226264Y329274D01*
X226260Y329294D01*
X226207Y329383D01*
X226158Y329474D01*
X226144Y329488D01*
X226134Y329505D01*
X226055Y329572D01*
X225980Y329644D01*
X225962Y329652D01*
X225947Y329665D01*
X225851Y329704D01*
X225757Y329747D01*
X225737Y329749D01*
X225719Y329757D01*
X225552Y329775D01*
X224968Y329775D01*
X224075Y330668D01*
X224075Y353932D01*
X224968Y354825D01*
X228368Y354825D01*
X228438Y354836D01*
X228510Y354838D01*
X228559Y354856D01*
X228610Y354864D01*
X228674Y354898D01*
X228741Y354923D01*
X228782Y354955D01*
X228828Y354980D01*
X228877Y355032D01*
X228933Y355076D01*
X228961Y355120D01*
X228997Y355158D01*
X229027Y355223D01*
X229066Y355283D01*
X229079Y355334D01*
X229101Y355381D01*
X229109Y355452D01*
X229126Y355522D01*
X229122Y355574D01*
X229128Y355625D01*
X229113Y355696D01*
X229107Y355767D01*
X229087Y355815D01*
X229076Y355866D01*
X229039Y355927D01*
X229011Y355993D01*
X228966Y356049D01*
X228949Y356077D01*
X228932Y356092D01*
X228906Y356124D01*
X214121Y370909D01*
X214121Y381014D01*
X214118Y381034D01*
X214120Y381053D01*
X214098Y381155D01*
X214082Y381257D01*
X214072Y381274D01*
X214068Y381294D01*
X214015Y381383D01*
X213966Y381474D01*
X213952Y381488D01*
X213942Y381505D01*
X213863Y381572D01*
X213788Y381644D01*
X213770Y381652D01*
X213755Y381665D01*
X213659Y381704D01*
X213565Y381747D01*
X213545Y381749D01*
X213527Y381757D01*
X213360Y381775D01*
X212268Y381775D01*
X211375Y382668D01*
X211375Y405932D01*
X212268Y406825D01*
X219532Y406825D01*
X220425Y405932D01*
X220425Y382668D01*
X219532Y381775D01*
X219456Y381775D01*
X219436Y381772D01*
X219417Y381774D01*
X219315Y381752D01*
X219213Y381736D01*
X219196Y381726D01*
X219176Y381722D01*
X219087Y381669D01*
X218996Y381620D01*
X218982Y381606D01*
X218965Y381596D01*
X218898Y381517D01*
X218826Y381442D01*
X218818Y381424D01*
X218805Y381409D01*
X218766Y381313D01*
X218723Y381219D01*
X218721Y381199D01*
X218713Y381181D01*
X218695Y381014D01*
X218695Y373119D01*
X218709Y373028D01*
X218717Y372938D01*
X218729Y372908D01*
X218734Y372876D01*
X218777Y372795D01*
X218813Y372711D01*
X218839Y372679D01*
X218850Y372658D01*
X218873Y372636D01*
X218918Y372580D01*
X235420Y356078D01*
X236190Y355308D01*
X236248Y355266D01*
X236300Y355217D01*
X236347Y355195D01*
X236389Y355165D01*
X236458Y355144D01*
X236523Y355113D01*
X236575Y355108D01*
X236625Y355092D01*
X236696Y355094D01*
X236767Y355086D01*
X236818Y355097D01*
X236870Y355099D01*
X236938Y355123D01*
X237008Y355138D01*
X237053Y355165D01*
X237101Y355183D01*
X237157Y355228D01*
X237219Y355265D01*
X237253Y355304D01*
X237293Y355337D01*
X237332Y355397D01*
X237379Y355452D01*
X237398Y355500D01*
X237426Y355544D01*
X237444Y355613D01*
X237471Y355680D01*
X237479Y355751D01*
X237487Y355782D01*
X237485Y355806D01*
X237489Y355846D01*
X237489Y360139D01*
X238282Y360932D01*
X238335Y361006D01*
X238395Y361076D01*
X238407Y361106D01*
X238426Y361132D01*
X238453Y361219D01*
X238487Y361304D01*
X238491Y361345D01*
X238498Y361367D01*
X238497Y361399D01*
X238505Y361471D01*
X238505Y366021D01*
X238491Y366112D01*
X238483Y366202D01*
X238471Y366232D01*
X238466Y366264D01*
X238423Y366345D01*
X238387Y366429D01*
X238361Y366461D01*
X238350Y366482D01*
X238327Y366504D01*
X238282Y366560D01*
X226313Y378529D01*
X226313Y381014D01*
X226310Y381034D01*
X226312Y381053D01*
X226290Y381155D01*
X226274Y381257D01*
X226264Y381274D01*
X226260Y381294D01*
X226207Y381383D01*
X226158Y381474D01*
X226144Y381488D01*
X226134Y381505D01*
X226055Y381572D01*
X225980Y381644D01*
X225962Y381652D01*
X225947Y381665D01*
X225851Y381704D01*
X225757Y381747D01*
X225737Y381749D01*
X225719Y381757D01*
X225552Y381775D01*
X224968Y381775D01*
X224075Y382668D01*
X224075Y405932D01*
X224968Y406825D01*
X232232Y406825D01*
X233125Y405932D01*
X233125Y382668D01*
X232232Y381775D01*
X231648Y381775D01*
X231628Y381772D01*
X231609Y381774D01*
X231507Y381752D01*
X231405Y381736D01*
X231388Y381726D01*
X231368Y381722D01*
X231279Y381669D01*
X231188Y381620D01*
X231174Y381606D01*
X231157Y381596D01*
X231090Y381517D01*
X231018Y381442D01*
X231010Y381424D01*
X230997Y381409D01*
X230958Y381313D01*
X230915Y381219D01*
X230913Y381199D01*
X230905Y381181D01*
X230887Y381014D01*
X230887Y380739D01*
X230901Y380648D01*
X230909Y380558D01*
X230921Y380528D01*
X230926Y380496D01*
X230969Y380415D01*
X231005Y380331D01*
X231031Y380299D01*
X231042Y380278D01*
X231065Y380256D01*
X231110Y380200D01*
X237206Y374104D01*
X237264Y374062D01*
X237316Y374013D01*
X237363Y373991D01*
X237405Y373961D01*
X237474Y373940D01*
X237539Y373909D01*
X237591Y373904D01*
X237641Y373888D01*
X237712Y373890D01*
X237783Y373882D01*
X237834Y373893D01*
X237886Y373895D01*
X237954Y373919D01*
X238024Y373934D01*
X238069Y373961D01*
X238117Y373979D01*
X238173Y374024D01*
X238235Y374061D01*
X238269Y374100D01*
X238309Y374133D01*
X238348Y374193D01*
X238395Y374248D01*
X238414Y374296D01*
X238442Y374340D01*
X238460Y374409D01*
X238487Y374476D01*
X238495Y374547D01*
X238503Y374578D01*
X238501Y374602D01*
X238505Y374642D01*
X238505Y381014D01*
X238502Y381034D01*
X238504Y381053D01*
X238482Y381155D01*
X238466Y381257D01*
X238456Y381274D01*
X238452Y381294D01*
X238399Y381383D01*
X238350Y381474D01*
X238336Y381488D01*
X238326Y381505D01*
X238247Y381572D01*
X238172Y381644D01*
X238154Y381652D01*
X238139Y381665D01*
X238043Y381704D01*
X237949Y381747D01*
X237929Y381749D01*
X237911Y381757D01*
X237744Y381775D01*
X237668Y381775D01*
X236775Y382668D01*
X236775Y405932D01*
X237668Y406825D01*
X244932Y406825D01*
X245825Y405932D01*
X245825Y382668D01*
X244932Y381775D01*
X243840Y381775D01*
X243820Y381772D01*
X243801Y381774D01*
X243699Y381752D01*
X243597Y381736D01*
X243580Y381726D01*
X243560Y381722D01*
X243471Y381669D01*
X243380Y381620D01*
X243366Y381606D01*
X243349Y381596D01*
X243282Y381517D01*
X243210Y381442D01*
X243202Y381424D01*
X243189Y381409D01*
X243150Y381313D01*
X243107Y381219D01*
X243105Y381199D01*
X243097Y381181D01*
X243079Y381014D01*
X243079Y373119D01*
X243093Y373028D01*
X243101Y372938D01*
X243113Y372908D01*
X243118Y372876D01*
X243161Y372795D01*
X243197Y372711D01*
X243223Y372679D01*
X243234Y372658D01*
X243257Y372636D01*
X243302Y372580D01*
X245072Y370810D01*
X245146Y370757D01*
X245216Y370697D01*
X245246Y370685D01*
X245272Y370666D01*
X245359Y370639D01*
X245444Y370605D01*
X245485Y370601D01*
X245507Y370594D01*
X245539Y370595D01*
X245611Y370587D01*
X248887Y370587D01*
X251715Y367759D01*
X251715Y363761D01*
X248887Y360933D01*
X247904Y360933D01*
X247884Y360930D01*
X247865Y360932D01*
X247763Y360910D01*
X247661Y360894D01*
X247644Y360884D01*
X247624Y360880D01*
X247535Y360827D01*
X247444Y360778D01*
X247430Y360764D01*
X247413Y360754D01*
X247346Y360675D01*
X247274Y360600D01*
X247266Y360582D01*
X247253Y360567D01*
X247214Y360471D01*
X247171Y360377D01*
X247169Y360357D01*
X247161Y360339D01*
X247143Y360172D01*
X247143Y356141D01*
X245917Y354915D01*
X245906Y354899D01*
X245890Y354887D01*
X245834Y354799D01*
X245774Y354716D01*
X245768Y354697D01*
X245757Y354680D01*
X245732Y354579D01*
X245702Y354481D01*
X245702Y354461D01*
X245697Y354441D01*
X245705Y354338D01*
X245708Y354235D01*
X245715Y354216D01*
X245716Y354196D01*
X245757Y354101D01*
X245792Y354004D01*
X245805Y353988D01*
X245813Y353970D01*
X245825Y353955D01*
X245825Y330668D01*
X244932Y329775D01*
X240700Y329775D01*
X240630Y329764D01*
X240558Y329762D01*
X240509Y329744D01*
X240458Y329736D01*
X240394Y329702D01*
X240327Y329677D01*
X240286Y329645D01*
X240240Y329620D01*
X240191Y329568D01*
X240135Y329524D01*
X240107Y329480D01*
X240071Y329442D01*
X240041Y329377D01*
X240002Y329317D01*
X239989Y329266D01*
X239967Y329219D01*
X239959Y329148D01*
X239942Y329078D01*
X239946Y329026D01*
X239940Y328975D01*
X239955Y328904D01*
X239961Y328833D01*
X239981Y328785D01*
X239992Y328734D01*
X240029Y328673D01*
X240057Y328607D01*
X240102Y328551D01*
X240119Y328523D01*
X240136Y328508D01*
X240162Y328476D01*
X241516Y327122D01*
X241590Y327069D01*
X241660Y327009D01*
X241690Y326997D01*
X241716Y326978D01*
X241803Y326951D01*
X241888Y326917D01*
X241929Y326913D01*
X241951Y326906D01*
X241983Y326907D01*
X242055Y326899D01*
X250197Y326899D01*
X250288Y326913D01*
X250378Y326921D01*
X250408Y326933D01*
X250440Y326938D01*
X250521Y326981D01*
X250605Y327017D01*
X250637Y327043D01*
X250658Y327054D01*
X250680Y327077D01*
X250736Y327122D01*
X251998Y328384D01*
X252051Y328458D01*
X252111Y328528D01*
X252123Y328558D01*
X252142Y328584D01*
X252169Y328671D01*
X252203Y328756D01*
X252207Y328797D01*
X252214Y328819D01*
X252213Y328851D01*
X252221Y328923D01*
X252221Y329014D01*
X252218Y329034D01*
X252220Y329053D01*
X252198Y329155D01*
X252182Y329257D01*
X252172Y329274D01*
X252168Y329294D01*
X252115Y329383D01*
X252066Y329474D01*
X252052Y329488D01*
X252042Y329505D01*
X251963Y329572D01*
X251888Y329644D01*
X251870Y329652D01*
X251855Y329665D01*
X251759Y329704D01*
X251665Y329747D01*
X251645Y329749D01*
X251627Y329757D01*
X251460Y329775D01*
X250368Y329775D01*
X249475Y330668D01*
X249475Y353932D01*
X250368Y354825D01*
X251460Y354825D01*
X251480Y354828D01*
X251499Y354826D01*
X251601Y354848D01*
X251703Y354864D01*
X251720Y354874D01*
X251740Y354878D01*
X251829Y354931D01*
X251920Y354980D01*
X251934Y354994D01*
X251951Y355004D01*
X252018Y355083D01*
X252090Y355158D01*
X252098Y355176D01*
X252111Y355191D01*
X252150Y355287D01*
X252193Y355381D01*
X252195Y355401D01*
X252203Y355419D01*
X252221Y355586D01*
X252221Y357563D01*
X264229Y369571D01*
X308109Y369571D01*
X308200Y369585D01*
X308290Y369593D01*
X308320Y369605D01*
X308352Y369610D01*
X308433Y369653D01*
X308517Y369689D01*
X308549Y369715D01*
X308570Y369726D01*
X308592Y369749D01*
X308648Y369794D01*
X309656Y370802D01*
X309709Y370876D01*
X309769Y370946D01*
X309781Y370976D01*
X309800Y371002D01*
X309827Y371089D01*
X309861Y371174D01*
X309865Y371215D01*
X309872Y371237D01*
X309871Y371269D01*
X309879Y371341D01*
X309879Y371457D01*
X314343Y375921D01*
X320657Y375921D01*
X325121Y371457D01*
X325121Y365143D01*
X320657Y360679D01*
X314343Y360679D01*
X310248Y364774D01*
X310174Y364827D01*
X310105Y364887D01*
X310075Y364899D01*
X310049Y364918D01*
X309962Y364945D01*
X309877Y364979D01*
X309836Y364983D01*
X309814Y364990D01*
X309781Y364989D01*
X309710Y364997D01*
X266439Y364997D01*
X266348Y364983D01*
X266258Y364975D01*
X266228Y364963D01*
X266196Y364958D01*
X266115Y364915D01*
X266031Y364879D01*
X265999Y364853D01*
X265978Y364842D01*
X265956Y364819D01*
X265900Y364774D01*
X257250Y356124D01*
X257208Y356066D01*
X257159Y356014D01*
X257137Y355967D01*
X257107Y355925D01*
X257086Y355856D01*
X257055Y355791D01*
X257050Y355739D01*
X257034Y355689D01*
X257036Y355618D01*
X257028Y355547D01*
X257039Y355496D01*
X257041Y355444D01*
X257065Y355376D01*
X257080Y355306D01*
X257107Y355261D01*
X257125Y355213D01*
X257170Y355157D01*
X257207Y355095D01*
X257246Y355061D01*
X257279Y355021D01*
X257339Y354982D01*
X257394Y354935D01*
X257442Y354916D01*
X257486Y354888D01*
X257555Y354870D01*
X257607Y354849D01*
X258525Y353932D01*
X258525Y330668D01*
X257632Y329775D01*
X257556Y329775D01*
X257536Y329772D01*
X257517Y329774D01*
X257415Y329752D01*
X257313Y329736D01*
X257296Y329726D01*
X257276Y329722D01*
X257187Y329669D01*
X257096Y329620D01*
X257082Y329606D01*
X257065Y329596D01*
X256998Y329517D01*
X256926Y329442D01*
X256918Y329424D01*
X256905Y329409D01*
X256866Y329313D01*
X256823Y329219D01*
X256821Y329199D01*
X256813Y329181D01*
X256795Y329014D01*
X256795Y326713D01*
X252407Y322325D01*
X242599Y322325D01*
X242529Y322314D01*
X242458Y322312D01*
X242408Y322294D01*
X242356Y322286D01*
X242293Y322253D01*
X242227Y322228D01*
X242185Y322195D01*
X242138Y322170D01*
X242090Y322119D01*
X242035Y322075D01*
X242006Y322031D01*
X241969Y321992D01*
X241939Y321928D01*
X241901Y321869D01*
X241888Y321817D01*
X241865Y321769D01*
X241858Y321699D01*
X241840Y321630D01*
X241844Y321577D01*
X241838Y321525D01*
X241853Y321455D01*
X241859Y321385D01*
X241879Y321336D01*
X241891Y321284D01*
X241927Y321224D01*
X241954Y321158D01*
X241990Y321119D01*
X242017Y321073D01*
X242070Y321027D01*
X242117Y320974D01*
X242179Y320934D01*
X242204Y320913D01*
X242217Y320908D01*
X242225Y320905D01*
X242258Y320883D01*
X242346Y320856D01*
X242432Y320821D01*
X242471Y320817D01*
X242493Y320810D01*
X242526Y320811D01*
X242599Y320803D01*
X325559Y320803D01*
X395440Y250922D01*
X395514Y250869D01*
X395584Y250809D01*
X395614Y250797D01*
X395640Y250778D01*
X395727Y250751D01*
X395812Y250717D01*
X395853Y250713D01*
X395875Y250706D01*
X395907Y250707D01*
X395979Y250699D01*
X412427Y250699D01*
X414536Y248590D01*
X414552Y248578D01*
X414565Y248563D01*
X414652Y248507D01*
X414736Y248446D01*
X414755Y248440D01*
X414772Y248430D01*
X414872Y248404D01*
X414971Y248374D01*
X414991Y248375D01*
X415010Y248370D01*
X415113Y248378D01*
X415217Y248380D01*
X415235Y248387D01*
X415255Y248389D01*
X415350Y248429D01*
X415448Y248465D01*
X415463Y248477D01*
X415482Y248485D01*
X415613Y248590D01*
X415943Y248921D01*
X422257Y248921D01*
X426721Y244457D01*
X426721Y238143D01*
X422257Y233679D01*
X415943Y233679D01*
G37*
%LPD*%
%LPC*%
G36*
X85743Y132079D02*
X85743Y132079D01*
X81279Y136543D01*
X81279Y142857D01*
X85743Y147321D01*
X92057Y147321D01*
X92387Y146990D01*
X92404Y146978D01*
X92416Y146963D01*
X92503Y146907D01*
X92587Y146846D01*
X92606Y146841D01*
X92623Y146830D01*
X92723Y146804D01*
X92822Y146774D01*
X92842Y146775D01*
X92861Y146770D01*
X92964Y146778D01*
X93068Y146780D01*
X93087Y146787D01*
X93107Y146789D01*
X93202Y146829D01*
X93299Y146865D01*
X93315Y146877D01*
X93333Y146885D01*
X93464Y146990D01*
X105694Y159220D01*
X105747Y159294D01*
X105807Y159364D01*
X105819Y159394D01*
X105838Y159420D01*
X105865Y159507D01*
X105899Y159592D01*
X105903Y159633D01*
X105910Y159655D01*
X105909Y159687D01*
X105917Y159759D01*
X105917Y220403D01*
X174274Y288760D01*
X174327Y288834D01*
X174387Y288904D01*
X174399Y288934D01*
X174418Y288960D01*
X174445Y289047D01*
X174479Y289132D01*
X174483Y289173D01*
X174490Y289195D01*
X174489Y289227D01*
X174497Y289299D01*
X174497Y378899D01*
X209365Y413767D01*
X252407Y413767D01*
X256795Y409379D01*
X256795Y407586D01*
X256798Y407566D01*
X256796Y407547D01*
X256818Y407445D01*
X256834Y407343D01*
X256844Y407326D01*
X256848Y407306D01*
X256901Y407217D01*
X256950Y407126D01*
X256964Y407112D01*
X256974Y407095D01*
X257053Y407028D01*
X257128Y406956D01*
X257146Y406948D01*
X257161Y406935D01*
X257257Y406896D01*
X257351Y406853D01*
X257371Y406851D01*
X257389Y406843D01*
X257556Y406825D01*
X257632Y406825D01*
X258525Y405932D01*
X258525Y382668D01*
X257632Y381775D01*
X250368Y381775D01*
X249475Y382668D01*
X249475Y405932D01*
X250368Y406825D01*
X251044Y406825D01*
X251114Y406836D01*
X251186Y406838D01*
X251235Y406856D01*
X251286Y406864D01*
X251350Y406898D01*
X251417Y406923D01*
X251458Y406955D01*
X251504Y406980D01*
X251553Y407032D01*
X251609Y407076D01*
X251637Y407120D01*
X251673Y407158D01*
X251703Y407223D01*
X251742Y407283D01*
X251755Y407334D01*
X251777Y407381D01*
X251785Y407452D01*
X251802Y407522D01*
X251798Y407574D01*
X251804Y407625D01*
X251789Y407696D01*
X251783Y407767D01*
X251763Y407815D01*
X251752Y407866D01*
X251715Y407927D01*
X251687Y407993D01*
X251642Y408049D01*
X251625Y408077D01*
X251608Y408092D01*
X251582Y408124D01*
X250736Y408970D01*
X250662Y409023D01*
X250592Y409083D01*
X250562Y409095D01*
X250536Y409114D01*
X250449Y409141D01*
X250364Y409175D01*
X250323Y409179D01*
X250301Y409186D01*
X250269Y409185D01*
X250197Y409193D01*
X211575Y409193D01*
X211484Y409179D01*
X211394Y409171D01*
X211364Y409159D01*
X211332Y409154D01*
X211251Y409111D01*
X211167Y409075D01*
X211135Y409049D01*
X211114Y409038D01*
X211092Y409015D01*
X211036Y408970D01*
X179294Y377228D01*
X179241Y377154D01*
X179181Y377084D01*
X179169Y377054D01*
X179150Y377028D01*
X179123Y376941D01*
X179089Y376856D01*
X179085Y376815D01*
X179078Y376793D01*
X179079Y376761D01*
X179071Y376689D01*
X179071Y287089D01*
X110714Y218732D01*
X110661Y218658D01*
X110601Y218588D01*
X110589Y218558D01*
X110570Y218532D01*
X110543Y218445D01*
X110509Y218360D01*
X110505Y218319D01*
X110498Y218297D01*
X110499Y218265D01*
X110491Y218193D01*
X110491Y157549D01*
X96698Y143756D01*
X96686Y143740D01*
X96671Y143727D01*
X96614Y143640D01*
X96554Y143556D01*
X96548Y143537D01*
X96538Y143520D01*
X96512Y143420D01*
X96482Y143321D01*
X96483Y143301D01*
X96478Y143282D01*
X96486Y143179D01*
X96488Y143075D01*
X96495Y143056D01*
X96497Y143036D01*
X96521Y142980D01*
X96521Y136543D01*
X92057Y132079D01*
X85743Y132079D01*
G37*
%LPD*%
%LPC*%
G36*
X275768Y381775D02*
X275768Y381775D01*
X274875Y382668D01*
X274875Y405932D01*
X275768Y406825D01*
X275844Y406825D01*
X275864Y406828D01*
X275883Y406826D01*
X275985Y406848D01*
X276087Y406864D01*
X276104Y406874D01*
X276124Y406878D01*
X276213Y406931D01*
X276304Y406980D01*
X276318Y406994D01*
X276335Y407004D01*
X276402Y407083D01*
X276474Y407158D01*
X276482Y407176D01*
X276495Y407191D01*
X276534Y407287D01*
X276577Y407381D01*
X276579Y407401D01*
X276587Y407419D01*
X276605Y407586D01*
X276605Y437649D01*
X276591Y437740D01*
X276583Y437830D01*
X276571Y437860D01*
X276566Y437892D01*
X276523Y437973D01*
X276487Y438057D01*
X276461Y438089D01*
X276450Y438110D01*
X276427Y438132D01*
X276382Y438188D01*
X258356Y456214D01*
X258282Y456267D01*
X258212Y456327D01*
X258182Y456339D01*
X258156Y456358D01*
X258069Y456385D01*
X257984Y456419D01*
X257943Y456423D01*
X257921Y456430D01*
X257889Y456429D01*
X257817Y456437D01*
X248151Y456437D01*
X248060Y456423D01*
X247970Y456415D01*
X247940Y456403D01*
X247908Y456398D01*
X247827Y456355D01*
X247743Y456319D01*
X247711Y456293D01*
X247690Y456282D01*
X247668Y456259D01*
X247612Y456214D01*
X202115Y410717D01*
X135382Y410717D01*
X135362Y410714D01*
X135343Y410716D01*
X135241Y410694D01*
X135139Y410678D01*
X135122Y410668D01*
X135102Y410664D01*
X135013Y410611D01*
X134922Y410562D01*
X134908Y410548D01*
X134891Y410538D01*
X134824Y410459D01*
X134752Y410384D01*
X134744Y410366D01*
X134731Y410351D01*
X134692Y410255D01*
X134649Y410161D01*
X134647Y410141D01*
X134639Y410123D01*
X134621Y409956D01*
X134621Y409593D01*
X130157Y405129D01*
X123843Y405129D01*
X119379Y409593D01*
X119379Y415907D01*
X123843Y420371D01*
X130157Y420371D01*
X134649Y415878D01*
X134660Y415809D01*
X134670Y415792D01*
X134674Y415772D01*
X134727Y415683D01*
X134776Y415592D01*
X134790Y415578D01*
X134800Y415561D01*
X134879Y415494D01*
X134954Y415422D01*
X134972Y415414D01*
X134987Y415401D01*
X135083Y415362D01*
X135177Y415319D01*
X135197Y415317D01*
X135215Y415309D01*
X135382Y415291D01*
X199905Y415291D01*
X199996Y415305D01*
X200086Y415313D01*
X200116Y415325D01*
X200148Y415330D01*
X200229Y415373D01*
X200313Y415409D01*
X200345Y415435D01*
X200366Y415446D01*
X200388Y415469D01*
X200444Y415514D01*
X245941Y461011D01*
X260027Y461011D01*
X281179Y439859D01*
X281179Y407586D01*
X281182Y407566D01*
X281180Y407547D01*
X281202Y407445D01*
X281218Y407343D01*
X281228Y407326D01*
X281232Y407306D01*
X281285Y407217D01*
X281334Y407126D01*
X281348Y407112D01*
X281358Y407095D01*
X281437Y407028D01*
X281512Y406956D01*
X281530Y406948D01*
X281545Y406935D01*
X281641Y406896D01*
X281735Y406853D01*
X281755Y406851D01*
X281773Y406843D01*
X281940Y406825D01*
X283032Y406825D01*
X283925Y405932D01*
X283925Y382668D01*
X283032Y381775D01*
X275768Y381775D01*
G37*
%LPD*%
%LPC*%
G36*
X198773Y68579D02*
X198773Y68579D01*
X194309Y73043D01*
X194309Y79510D01*
X194295Y79600D01*
X194287Y79691D01*
X194275Y79720D01*
X194270Y79752D01*
X194227Y79833D01*
X194191Y79917D01*
X194165Y79949D01*
X194154Y79970D01*
X194131Y79992D01*
X194086Y80048D01*
X176060Y98074D01*
X174497Y99637D01*
X174497Y109989D01*
X174483Y110080D01*
X174475Y110170D01*
X174463Y110200D01*
X174458Y110232D01*
X174415Y110313D01*
X174379Y110397D01*
X174353Y110429D01*
X174342Y110450D01*
X174319Y110472D01*
X174274Y110528D01*
X144017Y140785D01*
X144017Y208211D01*
X154501Y218695D01*
X157233Y218695D01*
X157323Y218709D01*
X157414Y218717D01*
X157444Y218729D01*
X157476Y218734D01*
X157557Y218777D01*
X157641Y218813D01*
X157673Y218839D01*
X157694Y218850D01*
X157716Y218873D01*
X157772Y218918D01*
X158534Y219680D01*
X158576Y219738D01*
X158625Y219790D01*
X158647Y219837D01*
X158677Y219879D01*
X158698Y219948D01*
X158729Y220013D01*
X158734Y220065D01*
X158750Y220115D01*
X158748Y220186D01*
X158756Y220257D01*
X158745Y220308D01*
X158743Y220360D01*
X158719Y220428D01*
X158704Y220498D01*
X158677Y220543D01*
X158659Y220591D01*
X158614Y220647D01*
X158577Y220709D01*
X158538Y220743D01*
X158505Y220783D01*
X158445Y220822D01*
X158390Y220869D01*
X158342Y220888D01*
X158298Y220916D01*
X158229Y220934D01*
X158162Y220961D01*
X158091Y220969D01*
X158060Y220977D01*
X158036Y220975D01*
X157996Y220979D01*
X157488Y220979D01*
X154687Y222139D01*
X152543Y224283D01*
X151383Y227084D01*
X151383Y230116D01*
X152543Y232917D01*
X154687Y235061D01*
X157488Y236221D01*
X172712Y236221D01*
X175513Y235061D01*
X177657Y232917D01*
X178817Y230116D01*
X178817Y227084D01*
X177657Y224283D01*
X175513Y222139D01*
X172712Y220979D01*
X166616Y220979D01*
X166526Y220965D01*
X166435Y220957D01*
X166406Y220945D01*
X166374Y220940D01*
X166293Y220897D01*
X166209Y220861D01*
X166177Y220835D01*
X166156Y220824D01*
X166134Y220801D01*
X166078Y220756D01*
X165316Y219994D01*
X159443Y214121D01*
X156711Y214121D01*
X156620Y214107D01*
X156530Y214099D01*
X156500Y214087D01*
X156468Y214082D01*
X156387Y214039D01*
X156303Y214003D01*
X156271Y213977D01*
X156250Y213966D01*
X156228Y213943D01*
X156172Y213898D01*
X148814Y206540D01*
X148761Y206466D01*
X148701Y206396D01*
X148689Y206366D01*
X148670Y206340D01*
X148643Y206253D01*
X148609Y206168D01*
X148605Y206127D01*
X148598Y206105D01*
X148599Y206073D01*
X148591Y206001D01*
X148591Y142995D01*
X148605Y142904D01*
X148613Y142814D01*
X148625Y142784D01*
X148630Y142752D01*
X148673Y142671D01*
X148709Y142587D01*
X148735Y142555D01*
X148746Y142534D01*
X148769Y142512D01*
X148814Y142456D01*
X179071Y112199D01*
X179071Y101846D01*
X179085Y101756D01*
X179093Y101665D01*
X179105Y101636D01*
X179110Y101604D01*
X179153Y101523D01*
X179189Y101439D01*
X179215Y101407D01*
X179226Y101386D01*
X179249Y101364D01*
X179294Y101308D01*
X197239Y83363D01*
X197255Y83351D01*
X197268Y83336D01*
X197355Y83280D01*
X197439Y83219D01*
X197458Y83214D01*
X197475Y83203D01*
X197575Y83177D01*
X197674Y83147D01*
X197694Y83148D01*
X197713Y83143D01*
X197816Y83151D01*
X197920Y83153D01*
X197939Y83160D01*
X197958Y83162D01*
X198053Y83202D01*
X198151Y83238D01*
X198166Y83250D01*
X198185Y83258D01*
X198316Y83363D01*
X198773Y83821D01*
X205087Y83821D01*
X209551Y79357D01*
X209551Y73043D01*
X205087Y68579D01*
X198773Y68579D01*
G37*
%LPD*%
%LPC*%
G36*
X293768Y211375D02*
X293768Y211375D01*
X292875Y212268D01*
X292875Y213360D01*
X292872Y213380D01*
X292874Y213399D01*
X292852Y213501D01*
X292836Y213603D01*
X292826Y213620D01*
X292822Y213640D01*
X292769Y213729D01*
X292720Y213820D01*
X292706Y213834D01*
X292696Y213851D01*
X292617Y213918D01*
X292542Y213990D01*
X292524Y213998D01*
X292509Y214011D01*
X292413Y214050D01*
X292319Y214093D01*
X292299Y214095D01*
X292281Y214103D01*
X292114Y214121D01*
X290137Y214121D01*
X279653Y224605D01*
X279653Y274581D01*
X279651Y274597D01*
X279652Y274609D01*
X279638Y274673D01*
X279631Y274762D01*
X279619Y274792D01*
X279614Y274824D01*
X279600Y274850D01*
X279571Y274905D01*
X279535Y274989D01*
X279509Y275021D01*
X279498Y275042D01*
X279475Y275064D01*
X279430Y275120D01*
X259149Y295401D01*
X259133Y295413D01*
X259120Y295428D01*
X259033Y295484D01*
X258949Y295545D01*
X258930Y295550D01*
X258914Y295561D01*
X258813Y295587D01*
X258714Y295617D01*
X258694Y295616D01*
X258675Y295621D01*
X258572Y295613D01*
X258468Y295611D01*
X258450Y295604D01*
X258430Y295602D01*
X258335Y295562D01*
X258237Y295526D01*
X258222Y295514D01*
X258203Y295506D01*
X258072Y295401D01*
X257946Y295274D01*
X250054Y295274D01*
X244474Y300854D01*
X244474Y308746D01*
X250054Y314326D01*
X257946Y314326D01*
X263526Y308746D01*
X263526Y300854D01*
X262383Y299712D01*
X262371Y299695D01*
X262356Y299683D01*
X262300Y299596D01*
X262239Y299512D01*
X262234Y299493D01*
X262223Y299476D01*
X262197Y299375D01*
X262167Y299277D01*
X262168Y299257D01*
X262163Y299237D01*
X262171Y299134D01*
X262173Y299031D01*
X262180Y299012D01*
X262182Y298992D01*
X262222Y298897D01*
X262258Y298800D01*
X262270Y298784D01*
X262278Y298766D01*
X262383Y298635D01*
X284227Y276791D01*
X284227Y231931D01*
X284229Y231915D01*
X284228Y231901D01*
X284239Y231851D01*
X284240Y231788D01*
X284258Y231739D01*
X284266Y231688D01*
X284279Y231664D01*
X284280Y231660D01*
X284290Y231644D01*
X284300Y231624D01*
X284325Y231557D01*
X284357Y231516D01*
X284382Y231470D01*
X284434Y231421D01*
X284478Y231365D01*
X284522Y231337D01*
X284560Y231301D01*
X284625Y231271D01*
X284685Y231232D01*
X284736Y231219D01*
X284783Y231197D01*
X284854Y231190D01*
X284924Y231172D01*
X284976Y231176D01*
X285027Y231170D01*
X285098Y231186D01*
X285169Y231191D01*
X285217Y231212D01*
X285268Y231223D01*
X285329Y231259D01*
X285395Y231287D01*
X285444Y231326D01*
X285458Y231334D01*
X285463Y231339D01*
X285479Y231349D01*
X285494Y231367D01*
X285526Y231392D01*
X287561Y233427D01*
X291559Y233427D01*
X292277Y232709D01*
X292293Y232698D01*
X292305Y232682D01*
X292392Y232626D01*
X292476Y232566D01*
X292495Y232560D01*
X292512Y232549D01*
X292613Y232524D01*
X292711Y232494D01*
X292731Y232494D01*
X292751Y232489D01*
X292854Y232497D01*
X292957Y232500D01*
X292976Y232507D01*
X292996Y232508D01*
X293091Y232549D01*
X293188Y232584D01*
X293204Y232597D01*
X293222Y232605D01*
X293353Y232709D01*
X293768Y233125D01*
X317032Y233125D01*
X317925Y232232D01*
X317925Y224968D01*
X317032Y224075D01*
X293768Y224075D01*
X293353Y224491D01*
X293337Y224502D01*
X293325Y224518D01*
X293237Y224574D01*
X293153Y224634D01*
X293134Y224640D01*
X293118Y224651D01*
X293017Y224676D01*
X292918Y224706D01*
X292898Y224706D01*
X292879Y224711D01*
X292776Y224703D01*
X292672Y224700D01*
X292654Y224693D01*
X292634Y224692D01*
X292539Y224651D01*
X292441Y224616D01*
X292426Y224603D01*
X292408Y224595D01*
X292277Y224491D01*
X291559Y223773D01*
X288790Y223773D01*
X288720Y223762D01*
X288648Y223760D01*
X288599Y223742D01*
X288548Y223734D01*
X288484Y223700D01*
X288417Y223675D01*
X288376Y223643D01*
X288330Y223618D01*
X288281Y223567D01*
X288225Y223522D01*
X288197Y223478D01*
X288161Y223440D01*
X288131Y223375D01*
X288092Y223315D01*
X288079Y223264D01*
X288057Y223217D01*
X288049Y223146D01*
X288032Y223076D01*
X288036Y223024D01*
X288030Y222973D01*
X288045Y222902D01*
X288051Y222831D01*
X288071Y222783D01*
X288082Y222732D01*
X288119Y222671D01*
X288147Y222605D01*
X288192Y222549D01*
X288209Y222521D01*
X288226Y222506D01*
X288252Y222474D01*
X291576Y219150D01*
X291634Y219108D01*
X291686Y219059D01*
X291733Y219037D01*
X291775Y219007D01*
X291844Y218986D01*
X291909Y218955D01*
X291961Y218950D01*
X292011Y218934D01*
X292082Y218936D01*
X292153Y218928D01*
X292204Y218939D01*
X292256Y218941D01*
X292324Y218965D01*
X292394Y218980D01*
X292438Y219007D01*
X292487Y219025D01*
X292543Y219070D01*
X292605Y219107D01*
X292639Y219146D01*
X292679Y219179D01*
X292718Y219239D01*
X292765Y219294D01*
X292784Y219342D01*
X292812Y219386D01*
X292830Y219455D01*
X292851Y219507D01*
X293768Y220425D01*
X317032Y220425D01*
X317925Y219532D01*
X317925Y212268D01*
X317032Y211375D01*
X293768Y211375D01*
G37*
%LPD*%
%LPC*%
G36*
X43645Y414527D02*
X43645Y414527D01*
X33527Y424645D01*
X33527Y438955D01*
X43645Y449073D01*
X57955Y449073D01*
X68073Y438955D01*
X68073Y424645D01*
X57955Y414527D01*
X43645Y414527D01*
G37*
%LPD*%
%LPC*%
G36*
X43645Y363727D02*
X43645Y363727D01*
X33527Y373845D01*
X33527Y388155D01*
X43645Y398273D01*
X57955Y398273D01*
X68073Y388155D01*
X68073Y373845D01*
X57955Y363727D01*
X43645Y363727D01*
G37*
%LPD*%
%LPC*%
G36*
X94445Y33527D02*
X94445Y33527D01*
X84327Y43645D01*
X84327Y57955D01*
X94445Y68073D01*
X108755Y68073D01*
X118873Y57955D01*
X118873Y43645D01*
X108755Y33527D01*
X94445Y33527D01*
G37*
%LPD*%
%LPC*%
G36*
X275768Y329775D02*
X275768Y329775D01*
X274875Y330668D01*
X274875Y353932D01*
X275768Y354825D01*
X275844Y354825D01*
X275864Y354828D01*
X275883Y354826D01*
X275985Y354848D01*
X276087Y354864D01*
X276104Y354874D01*
X276124Y354878D01*
X276213Y354931D01*
X276304Y354980D01*
X276318Y354994D01*
X276335Y355004D01*
X276402Y355083D01*
X276474Y355158D01*
X276482Y355176D01*
X276495Y355191D01*
X276534Y355287D01*
X276577Y355381D01*
X276579Y355401D01*
X276587Y355419D01*
X276605Y355586D01*
X276605Y357563D01*
X280993Y361951D01*
X310319Y361951D01*
X313144Y359126D01*
X313218Y359073D01*
X313288Y359013D01*
X313318Y359001D01*
X313344Y358982D01*
X313431Y358955D01*
X313516Y358921D01*
X313557Y358917D01*
X313579Y358910D01*
X313611Y358911D01*
X313683Y358903D01*
X343161Y358903D01*
X343252Y358917D01*
X343342Y358925D01*
X343372Y358937D01*
X343404Y358942D01*
X343485Y358985D01*
X343569Y359021D01*
X343601Y359047D01*
X343622Y359058D01*
X343644Y359081D01*
X343700Y359126D01*
X373710Y389136D01*
X373722Y389152D01*
X373737Y389165D01*
X373793Y389252D01*
X373854Y389336D01*
X373859Y389355D01*
X373870Y389372D01*
X373896Y389472D01*
X373926Y389571D01*
X373925Y389591D01*
X373930Y389610D01*
X373922Y389713D01*
X373920Y389817D01*
X373913Y389835D01*
X373911Y389855D01*
X373871Y389950D01*
X373835Y390048D01*
X373823Y390063D01*
X373815Y390082D01*
X373710Y390213D01*
X373379Y390543D01*
X373379Y396857D01*
X377843Y401321D01*
X384157Y401321D01*
X388621Y396857D01*
X388621Y390543D01*
X384157Y386079D01*
X377718Y386079D01*
X377685Y386088D01*
X377586Y386118D01*
X377566Y386117D01*
X377547Y386122D01*
X377444Y386114D01*
X377340Y386112D01*
X377321Y386105D01*
X377301Y386103D01*
X377206Y386063D01*
X377109Y386027D01*
X377093Y386015D01*
X377075Y386007D01*
X376944Y385902D01*
X345371Y354329D01*
X311473Y354329D01*
X308648Y357154D01*
X308574Y357207D01*
X308504Y357267D01*
X308474Y357279D01*
X308448Y357298D01*
X308361Y357325D01*
X308276Y357359D01*
X308235Y357363D01*
X308213Y357370D01*
X308181Y357369D01*
X308109Y357377D01*
X283203Y357377D01*
X283113Y357363D01*
X283022Y357355D01*
X282992Y357343D01*
X282960Y357338D01*
X282879Y357295D01*
X282795Y357259D01*
X282763Y357233D01*
X282742Y357222D01*
X282720Y357199D01*
X282664Y357154D01*
X281634Y356124D01*
X281592Y356066D01*
X281543Y356014D01*
X281521Y355967D01*
X281491Y355925D01*
X281470Y355856D01*
X281439Y355791D01*
X281434Y355739D01*
X281418Y355689D01*
X281420Y355618D01*
X281412Y355547D01*
X281423Y355496D01*
X281425Y355444D01*
X281449Y355376D01*
X281464Y355306D01*
X281491Y355261D01*
X281509Y355213D01*
X281554Y355157D01*
X281591Y355095D01*
X281630Y355061D01*
X281663Y355021D01*
X281723Y354982D01*
X281778Y354935D01*
X281826Y354916D01*
X281870Y354888D01*
X281939Y354870D01*
X282006Y354843D01*
X282077Y354835D01*
X282108Y354827D01*
X282132Y354829D01*
X282172Y354825D01*
X283032Y354825D01*
X283925Y353932D01*
X283925Y330668D01*
X283032Y329775D01*
X275768Y329775D01*
G37*
%LPD*%
%LPC*%
G36*
X222114Y67944D02*
X222114Y67944D01*
X216534Y73524D01*
X216534Y81416D01*
X222114Y86996D01*
X230006Y86996D01*
X231021Y85980D01*
X231038Y85968D01*
X231050Y85953D01*
X231126Y85904D01*
X231142Y85890D01*
X231151Y85887D01*
X231221Y85836D01*
X231240Y85831D01*
X231257Y85820D01*
X231357Y85794D01*
X231456Y85764D01*
X231476Y85765D01*
X231496Y85760D01*
X231598Y85768D01*
X231702Y85770D01*
X231721Y85777D01*
X231741Y85779D01*
X231836Y85819D01*
X231933Y85855D01*
X231949Y85867D01*
X231967Y85875D01*
X232039Y85933D01*
X232043Y85935D01*
X232047Y85939D01*
X232098Y85980D01*
X251998Y105880D01*
X252051Y105954D01*
X252111Y106024D01*
X252123Y106054D01*
X252142Y106080D01*
X252169Y106167D01*
X252203Y106252D01*
X252207Y106293D01*
X252214Y106315D01*
X252213Y106347D01*
X252221Y106419D01*
X252221Y147114D01*
X252218Y147134D01*
X252220Y147153D01*
X252198Y147255D01*
X252182Y147357D01*
X252172Y147374D01*
X252168Y147394D01*
X252115Y147483D01*
X252066Y147574D01*
X252052Y147588D01*
X252042Y147605D01*
X251963Y147672D01*
X251888Y147744D01*
X251870Y147752D01*
X251855Y147765D01*
X251759Y147804D01*
X251665Y147847D01*
X251645Y147849D01*
X251627Y147857D01*
X251460Y147875D01*
X241768Y147875D01*
X240875Y148768D01*
X240875Y156032D01*
X241768Y156925D01*
X265032Y156925D01*
X265925Y156032D01*
X265925Y148768D01*
X265032Y147875D01*
X257556Y147875D01*
X257536Y147872D01*
X257517Y147874D01*
X257415Y147852D01*
X257313Y147836D01*
X257296Y147826D01*
X257276Y147822D01*
X257187Y147769D01*
X257096Y147720D01*
X257082Y147706D01*
X257065Y147696D01*
X256998Y147617D01*
X256926Y147542D01*
X256918Y147524D01*
X256905Y147509D01*
X256866Y147413D01*
X256823Y147319D01*
X256821Y147299D01*
X256813Y147281D01*
X256795Y147114D01*
X256795Y104209D01*
X235332Y82746D01*
X235320Y82730D01*
X235305Y82717D01*
X235249Y82630D01*
X235188Y82546D01*
X235183Y82527D01*
X235172Y82510D01*
X235146Y82410D01*
X235116Y82311D01*
X235117Y82291D01*
X235112Y82272D01*
X235120Y82169D01*
X235122Y82065D01*
X235129Y82047D01*
X235131Y82027D01*
X235171Y81932D01*
X235207Y81834D01*
X235219Y81819D01*
X235227Y81800D01*
X235332Y81669D01*
X235586Y81416D01*
X235586Y73524D01*
X230006Y67944D01*
X222114Y67944D01*
G37*
%LPD*%
%LPC*%
G36*
X293768Y160575D02*
X293768Y160575D01*
X292875Y161468D01*
X292875Y168732D01*
X293768Y169625D01*
X317032Y169625D01*
X317925Y168732D01*
X317925Y167640D01*
X317928Y167620D01*
X317926Y167601D01*
X317948Y167499D01*
X317964Y167397D01*
X317974Y167380D01*
X317978Y167360D01*
X318031Y167271D01*
X318080Y167180D01*
X318094Y167166D01*
X318104Y167149D01*
X318183Y167082D01*
X318258Y167010D01*
X318276Y167002D01*
X318291Y166989D01*
X318387Y166950D01*
X318481Y166907D01*
X318501Y166905D01*
X318519Y166897D01*
X318686Y166879D01*
X341637Y166879D01*
X341728Y166893D01*
X341818Y166901D01*
X341848Y166913D01*
X341880Y166918D01*
X341961Y166961D01*
X342045Y166997D01*
X342077Y167023D01*
X342098Y167034D01*
X342120Y167057D01*
X342176Y167102D01*
X386410Y211336D01*
X386422Y211352D01*
X386437Y211365D01*
X386493Y211452D01*
X386554Y211536D01*
X386559Y211555D01*
X386570Y211572D01*
X386596Y211672D01*
X386626Y211771D01*
X386625Y211791D01*
X386630Y211810D01*
X386622Y211913D01*
X386620Y212017D01*
X386613Y212035D01*
X386611Y212055D01*
X386571Y212150D01*
X386535Y212248D01*
X386523Y212263D01*
X386515Y212282D01*
X386410Y212413D01*
X386079Y212743D01*
X386079Y219057D01*
X390543Y223521D01*
X396857Y223521D01*
X401321Y219057D01*
X401321Y212743D01*
X396857Y208279D01*
X390418Y208279D01*
X390385Y208288D01*
X390286Y208318D01*
X390266Y208317D01*
X390247Y208322D01*
X390144Y208314D01*
X390040Y208312D01*
X390021Y208305D01*
X390001Y208303D01*
X389906Y208263D01*
X389809Y208227D01*
X389793Y208215D01*
X389775Y208207D01*
X389644Y208102D01*
X343847Y162305D01*
X318686Y162305D01*
X318666Y162302D01*
X318647Y162304D01*
X318545Y162282D01*
X318443Y162266D01*
X318426Y162256D01*
X318406Y162252D01*
X318317Y162199D01*
X318226Y162150D01*
X318212Y162136D01*
X318195Y162126D01*
X318128Y162047D01*
X318056Y161972D01*
X318048Y161954D01*
X318035Y161939D01*
X317996Y161843D01*
X317953Y161749D01*
X317951Y161729D01*
X317943Y161711D01*
X317925Y161544D01*
X317925Y161468D01*
X317032Y160575D01*
X293768Y160575D01*
G37*
%LPD*%
%LPC*%
G36*
X314343Y132079D02*
X314343Y132079D01*
X309879Y136543D01*
X309879Y142857D01*
X313598Y146576D01*
X313640Y146634D01*
X313690Y146686D01*
X313712Y146733D01*
X313742Y146775D01*
X313763Y146844D01*
X313793Y146909D01*
X313799Y146961D01*
X313814Y147011D01*
X313812Y147082D01*
X313820Y147153D01*
X313809Y147204D01*
X313808Y147256D01*
X313783Y147324D01*
X313768Y147394D01*
X313741Y147439D01*
X313724Y147487D01*
X313679Y147543D01*
X313642Y147605D01*
X313602Y147639D01*
X313570Y147679D01*
X313510Y147718D01*
X313455Y147765D01*
X313407Y147784D01*
X313363Y147812D01*
X313293Y147830D01*
X313227Y147857D01*
X313156Y147865D01*
X313124Y147873D01*
X313101Y147871D01*
X313060Y147875D01*
X293768Y147875D01*
X292875Y148768D01*
X292875Y156032D01*
X293768Y156925D01*
X317032Y156925D01*
X317925Y156032D01*
X317925Y155448D01*
X317928Y155428D01*
X317926Y155409D01*
X317948Y155307D01*
X317964Y155205D01*
X317974Y155188D01*
X317978Y155168D01*
X318031Y155079D01*
X318080Y154988D01*
X318094Y154974D01*
X318104Y154957D01*
X318183Y154890D01*
X318258Y154818D01*
X318276Y154810D01*
X318291Y154797D01*
X318387Y154758D01*
X318481Y154715D01*
X318501Y154713D01*
X318519Y154705D01*
X318686Y154687D01*
X343847Y154687D01*
X351290Y147244D01*
X351306Y147232D01*
X351319Y147217D01*
X351406Y147161D01*
X351490Y147100D01*
X351509Y147094D01*
X351526Y147084D01*
X351626Y147058D01*
X351725Y147028D01*
X351745Y147029D01*
X351764Y147024D01*
X351867Y147032D01*
X351971Y147034D01*
X351989Y147041D01*
X352009Y147043D01*
X352104Y147083D01*
X352202Y147119D01*
X352217Y147131D01*
X352236Y147139D01*
X352367Y147244D01*
X352443Y147321D01*
X358757Y147321D01*
X363221Y142857D01*
X363221Y136543D01*
X358757Y132079D01*
X352443Y132079D01*
X347979Y136543D01*
X347979Y142857D01*
X348056Y142933D01*
X348068Y142950D01*
X348083Y142962D01*
X348139Y143049D01*
X348200Y143133D01*
X348206Y143152D01*
X348216Y143169D01*
X348242Y143269D01*
X348272Y143368D01*
X348271Y143388D01*
X348276Y143407D01*
X348268Y143510D01*
X348266Y143614D01*
X348259Y143633D01*
X348257Y143653D01*
X348217Y143748D01*
X348181Y143845D01*
X348169Y143861D01*
X348161Y143879D01*
X348056Y144010D01*
X342176Y149890D01*
X342102Y149943D01*
X342032Y150003D01*
X342002Y150015D01*
X341976Y150034D01*
X341889Y150061D01*
X341804Y150095D01*
X341763Y150099D01*
X341741Y150106D01*
X341709Y150105D01*
X341637Y150113D01*
X318686Y150113D01*
X318666Y150110D01*
X318647Y150112D01*
X318545Y150090D01*
X318443Y150074D01*
X318426Y150064D01*
X318406Y150060D01*
X318317Y150007D01*
X318226Y149958D01*
X318212Y149944D01*
X318195Y149934D01*
X318128Y149855D01*
X318056Y149780D01*
X318048Y149762D01*
X318035Y149747D01*
X317996Y149651D01*
X317953Y149557D01*
X317951Y149537D01*
X317943Y149519D01*
X317925Y149352D01*
X317925Y148768D01*
X317777Y148620D01*
X317735Y148562D01*
X317685Y148510D01*
X317663Y148463D01*
X317633Y148421D01*
X317612Y148352D01*
X317582Y148287D01*
X317576Y148235D01*
X317561Y148185D01*
X317563Y148114D01*
X317555Y148043D01*
X317566Y147992D01*
X317567Y147940D01*
X317592Y147872D01*
X317607Y147802D01*
X317634Y147757D01*
X317651Y147709D01*
X317696Y147653D01*
X317733Y147591D01*
X317773Y147557D01*
X317805Y147517D01*
X317865Y147478D01*
X317920Y147431D01*
X317968Y147412D01*
X318012Y147384D01*
X318081Y147366D01*
X318148Y147339D01*
X318219Y147331D01*
X318251Y147323D01*
X318274Y147325D01*
X318315Y147321D01*
X320657Y147321D01*
X325121Y142857D01*
X325121Y136543D01*
X320657Y132079D01*
X314343Y132079D01*
G37*
%LPD*%
%LPC*%
G36*
X198773Y144779D02*
X198773Y144779D01*
X194309Y149243D01*
X194309Y155557D01*
X198773Y160021D01*
X205239Y160021D01*
X205330Y160035D01*
X205420Y160043D01*
X205450Y160055D01*
X205482Y160060D01*
X205563Y160103D01*
X205647Y160139D01*
X205679Y160165D01*
X205700Y160176D01*
X205722Y160199D01*
X205778Y160244D01*
X207802Y162268D01*
X207855Y162342D01*
X207915Y162412D01*
X207927Y162442D01*
X207946Y162468D01*
X207973Y162555D01*
X208007Y162640D01*
X208011Y162681D01*
X208018Y162703D01*
X208017Y162735D01*
X208025Y162807D01*
X208025Y176207D01*
X236797Y204979D01*
X240114Y204979D01*
X240134Y204982D01*
X240153Y204980D01*
X240255Y205002D01*
X240357Y205018D01*
X240374Y205028D01*
X240394Y205032D01*
X240483Y205085D01*
X240574Y205134D01*
X240588Y205148D01*
X240605Y205158D01*
X240672Y205237D01*
X240744Y205312D01*
X240752Y205330D01*
X240765Y205345D01*
X240804Y205441D01*
X240847Y205535D01*
X240849Y205555D01*
X240857Y205573D01*
X240875Y205740D01*
X240875Y206832D01*
X241768Y207725D01*
X265032Y207725D01*
X265925Y206832D01*
X265925Y199568D01*
X265032Y198675D01*
X241768Y198675D01*
X240875Y199568D01*
X240875Y199644D01*
X240872Y199664D01*
X240874Y199683D01*
X240852Y199785D01*
X240836Y199887D01*
X240826Y199904D01*
X240822Y199924D01*
X240769Y200013D01*
X240720Y200104D01*
X240706Y200118D01*
X240696Y200135D01*
X240617Y200202D01*
X240542Y200274D01*
X240524Y200282D01*
X240509Y200295D01*
X240413Y200334D01*
X240319Y200377D01*
X240299Y200379D01*
X240281Y200387D01*
X240114Y200405D01*
X239007Y200405D01*
X238916Y200391D01*
X238826Y200383D01*
X238796Y200371D01*
X238764Y200366D01*
X238683Y200323D01*
X238599Y200287D01*
X238567Y200261D01*
X238546Y200250D01*
X238524Y200227D01*
X238468Y200182D01*
X212822Y174536D01*
X212769Y174462D01*
X212709Y174392D01*
X212697Y174362D01*
X212678Y174336D01*
X212651Y174249D01*
X212617Y174164D01*
X212613Y174123D01*
X212606Y174101D01*
X212607Y174069D01*
X212599Y173997D01*
X212599Y160597D01*
X209093Y157091D01*
X209081Y157075D01*
X209066Y157062D01*
X209035Y157015D01*
X209025Y157004D01*
X209017Y156987D01*
X209010Y156975D01*
X208949Y156891D01*
X208943Y156872D01*
X208933Y156855D01*
X208907Y156755D01*
X208877Y156656D01*
X208878Y156636D01*
X208873Y156617D01*
X208881Y156514D01*
X208883Y156410D01*
X208890Y156392D01*
X208892Y156372D01*
X208932Y156277D01*
X208968Y156179D01*
X208980Y156164D01*
X208988Y156145D01*
X209093Y156014D01*
X209551Y155557D01*
X209551Y149243D01*
X205087Y144779D01*
X198773Y144779D01*
G37*
%LPD*%
%LPC*%
G36*
X263068Y381775D02*
X263068Y381775D01*
X262175Y382668D01*
X262175Y405932D01*
X263068Y406825D01*
X263652Y406825D01*
X263672Y406828D01*
X263691Y406826D01*
X263793Y406848D01*
X263895Y406864D01*
X263912Y406874D01*
X263932Y406878D01*
X264021Y406931D01*
X264112Y406980D01*
X264126Y406994D01*
X264143Y407004D01*
X264210Y407083D01*
X264282Y407158D01*
X264290Y407176D01*
X264303Y407191D01*
X264342Y407287D01*
X264385Y407381D01*
X264387Y407401D01*
X264395Y407419D01*
X264413Y407586D01*
X264413Y430029D01*
X264399Y430120D01*
X264391Y430210D01*
X264379Y430240D01*
X264374Y430272D01*
X264331Y430353D01*
X264295Y430437D01*
X264269Y430469D01*
X264258Y430490D01*
X264235Y430512D01*
X264190Y430568D01*
X259403Y435355D01*
X259387Y435367D01*
X259374Y435382D01*
X259287Y435438D01*
X259203Y435499D01*
X259184Y435504D01*
X259167Y435515D01*
X259067Y435541D01*
X258968Y435571D01*
X258948Y435570D01*
X258929Y435575D01*
X258826Y435567D01*
X258722Y435565D01*
X258704Y435558D01*
X258684Y435556D01*
X258589Y435516D01*
X258491Y435480D01*
X258476Y435468D01*
X258457Y435460D01*
X258326Y435355D01*
X257946Y434974D01*
X250054Y434974D01*
X244474Y440554D01*
X244474Y448446D01*
X250054Y454026D01*
X257946Y454026D01*
X263526Y448446D01*
X263526Y440554D01*
X262637Y439666D01*
X262625Y439649D01*
X262610Y439637D01*
X262554Y439550D01*
X262493Y439466D01*
X262488Y439447D01*
X262477Y439430D01*
X262451Y439330D01*
X262421Y439231D01*
X262422Y439211D01*
X262417Y439191D01*
X262425Y439089D01*
X262427Y438985D01*
X262434Y438966D01*
X262436Y438946D01*
X262476Y438851D01*
X262512Y438754D01*
X262524Y438738D01*
X262532Y438720D01*
X262637Y438589D01*
X268987Y432239D01*
X268987Y407586D01*
X268990Y407566D01*
X268988Y407547D01*
X269010Y407445D01*
X269026Y407343D01*
X269036Y407326D01*
X269040Y407306D01*
X269093Y407217D01*
X269142Y407126D01*
X269156Y407112D01*
X269166Y407095D01*
X269245Y407028D01*
X269320Y406956D01*
X269338Y406948D01*
X269353Y406935D01*
X269449Y406896D01*
X269543Y406853D01*
X269563Y406851D01*
X269581Y406843D01*
X269748Y406825D01*
X270332Y406825D01*
X271225Y405932D01*
X271225Y382668D01*
X270332Y381775D01*
X263068Y381775D01*
G37*
%LPD*%
%LPC*%
G36*
X339743Y309879D02*
X339743Y309879D01*
X335279Y314343D01*
X335279Y320782D01*
X335282Y320794D01*
X335286Y320801D01*
X335287Y320812D01*
X335288Y320815D01*
X335318Y320914D01*
X335317Y320934D01*
X335322Y320953D01*
X335314Y321056D01*
X335312Y321160D01*
X335305Y321179D01*
X335303Y321199D01*
X335263Y321294D01*
X335227Y321391D01*
X335215Y321407D01*
X335207Y321425D01*
X335102Y321556D01*
X316268Y340390D01*
X316194Y340443D01*
X316124Y340503D01*
X316094Y340515D01*
X316068Y340534D01*
X315981Y340561D01*
X315896Y340595D01*
X315855Y340599D01*
X315833Y340606D01*
X315801Y340605D01*
X315729Y340613D01*
X297386Y340613D01*
X297366Y340610D01*
X297347Y340612D01*
X297245Y340590D01*
X297143Y340574D01*
X297126Y340564D01*
X297106Y340560D01*
X297017Y340507D01*
X296926Y340458D01*
X296912Y340444D01*
X296895Y340434D01*
X296828Y340355D01*
X296756Y340280D01*
X296748Y340262D01*
X296735Y340247D01*
X296696Y340151D01*
X296653Y340057D01*
X296651Y340037D01*
X296643Y340019D01*
X296625Y339852D01*
X296625Y330668D01*
X295732Y329775D01*
X288468Y329775D01*
X287575Y330668D01*
X287575Y353932D01*
X288468Y354825D01*
X295732Y354825D01*
X296625Y353932D01*
X296625Y345948D01*
X296628Y345928D01*
X296626Y345909D01*
X296648Y345807D01*
X296664Y345705D01*
X296674Y345688D01*
X296678Y345668D01*
X296731Y345579D01*
X296780Y345488D01*
X296794Y345474D01*
X296804Y345457D01*
X296883Y345390D01*
X296958Y345318D01*
X296976Y345310D01*
X296991Y345297D01*
X297087Y345258D01*
X297181Y345215D01*
X297201Y345213D01*
X297219Y345205D01*
X297386Y345187D01*
X317939Y345187D01*
X338336Y324790D01*
X338352Y324778D01*
X338365Y324763D01*
X338452Y324707D01*
X338536Y324646D01*
X338555Y324641D01*
X338572Y324630D01*
X338672Y324604D01*
X338771Y324574D01*
X338791Y324575D01*
X338810Y324570D01*
X338913Y324578D01*
X339017Y324580D01*
X339035Y324587D01*
X339055Y324589D01*
X339150Y324629D01*
X339248Y324665D01*
X339263Y324677D01*
X339282Y324685D01*
X339413Y324790D01*
X339743Y325121D01*
X346057Y325121D01*
X350521Y320657D01*
X350521Y314343D01*
X346057Y309879D01*
X339743Y309879D01*
G37*
%LPD*%
%LPC*%
G36*
X288468Y381775D02*
X288468Y381775D01*
X287575Y382668D01*
X287575Y405932D01*
X288468Y406825D01*
X295732Y406825D01*
X296625Y405932D01*
X296625Y397764D01*
X296628Y397744D01*
X296626Y397725D01*
X296648Y397623D01*
X296664Y397521D01*
X296674Y397504D01*
X296678Y397484D01*
X296731Y397395D01*
X296780Y397304D01*
X296794Y397290D01*
X296804Y397273D01*
X296883Y397206D01*
X296958Y397134D01*
X296976Y397126D01*
X296991Y397113D01*
X297087Y397074D01*
X297181Y397031D01*
X297201Y397029D01*
X297219Y397021D01*
X297386Y397003D01*
X326397Y397003D01*
X326488Y397017D01*
X326578Y397025D01*
X326608Y397037D01*
X326640Y397042D01*
X326721Y397085D01*
X326805Y397121D01*
X326837Y397147D01*
X326858Y397158D01*
X326880Y397181D01*
X326936Y397226D01*
X332809Y403099D01*
X336227Y403099D01*
X338336Y400990D01*
X338352Y400978D01*
X338365Y400963D01*
X338452Y400907D01*
X338536Y400846D01*
X338555Y400840D01*
X338572Y400830D01*
X338672Y400804D01*
X338771Y400774D01*
X338791Y400775D01*
X338810Y400770D01*
X338913Y400778D01*
X339017Y400780D01*
X339035Y400787D01*
X339055Y400789D01*
X339150Y400829D01*
X339248Y400865D01*
X339263Y400877D01*
X339282Y400885D01*
X339413Y400990D01*
X339743Y401321D01*
X346057Y401321D01*
X350521Y396857D01*
X350521Y390543D01*
X346057Y386079D01*
X339743Y386079D01*
X335279Y390543D01*
X335279Y396982D01*
X335288Y397015D01*
X335318Y397114D01*
X335317Y397134D01*
X335322Y397154D01*
X335314Y397257D01*
X335312Y397360D01*
X335305Y397379D01*
X335303Y397399D01*
X335263Y397494D01*
X335227Y397591D01*
X335215Y397607D01*
X335207Y397625D01*
X335102Y397756D01*
X335056Y397802D01*
X335040Y397814D01*
X335028Y397829D01*
X334940Y397885D01*
X334856Y397945D01*
X334837Y397951D01*
X334821Y397962D01*
X334720Y397987D01*
X334621Y398018D01*
X334601Y398017D01*
X334582Y398022D01*
X334479Y398014D01*
X334375Y398011D01*
X334357Y398004D01*
X334337Y398003D01*
X334242Y397962D01*
X334144Y397927D01*
X334129Y397914D01*
X334111Y397907D01*
X333980Y397802D01*
X328607Y392429D01*
X297386Y392429D01*
X297366Y392426D01*
X297347Y392428D01*
X297245Y392406D01*
X297143Y392390D01*
X297126Y392380D01*
X297106Y392376D01*
X297017Y392323D01*
X296926Y392274D01*
X296912Y392260D01*
X296895Y392250D01*
X296828Y392171D01*
X296756Y392096D01*
X296748Y392078D01*
X296735Y392063D01*
X296696Y391967D01*
X296653Y391873D01*
X296651Y391853D01*
X296643Y391835D01*
X296625Y391668D01*
X296625Y382668D01*
X295732Y381775D01*
X288468Y381775D01*
G37*
%LPD*%
%LPC*%
G36*
X157488Y246379D02*
X157488Y246379D01*
X154687Y247539D01*
X152543Y249683D01*
X151383Y252484D01*
X151383Y255516D01*
X152543Y258317D01*
X154687Y260461D01*
X157488Y261621D01*
X172712Y261621D01*
X175513Y260461D01*
X177657Y258317D01*
X178817Y255516D01*
X178817Y252484D01*
X177657Y249683D01*
X175513Y247539D01*
X172712Y246379D01*
X157488Y246379D01*
G37*
%LPD*%
%LPC*%
G36*
X81288Y195579D02*
X81288Y195579D01*
X78487Y196739D01*
X76343Y198883D01*
X75183Y201684D01*
X75183Y204716D01*
X76343Y207517D01*
X78487Y209661D01*
X81288Y210821D01*
X96512Y210821D01*
X99313Y209661D01*
X101457Y207517D01*
X102617Y204716D01*
X102617Y201684D01*
X101457Y198883D01*
X99313Y196739D01*
X96512Y195579D01*
X81288Y195579D01*
G37*
%LPD*%
%LPC*%
G36*
X81288Y220979D02*
X81288Y220979D01*
X78487Y222139D01*
X76343Y224283D01*
X75183Y227084D01*
X75183Y230116D01*
X76343Y232917D01*
X78487Y235061D01*
X81288Y236221D01*
X96512Y236221D01*
X99313Y235061D01*
X101457Y232917D01*
X102617Y230116D01*
X102617Y227084D01*
X101457Y224283D01*
X99313Y222139D01*
X96512Y220979D01*
X81288Y220979D01*
G37*
%LPD*%
%LPC*%
G36*
X157488Y195579D02*
X157488Y195579D01*
X154687Y196739D01*
X152543Y198883D01*
X151383Y201684D01*
X151383Y204716D01*
X152543Y207517D01*
X154687Y209661D01*
X157488Y210821D01*
X172712Y210821D01*
X175513Y209661D01*
X177657Y207517D01*
X178817Y204716D01*
X178817Y201684D01*
X177657Y198883D01*
X175513Y196739D01*
X172712Y195579D01*
X157488Y195579D01*
G37*
%LPD*%
%LPC*%
G36*
X81288Y246379D02*
X81288Y246379D01*
X78487Y247539D01*
X76343Y249683D01*
X75183Y252484D01*
X75183Y255516D01*
X76343Y258317D01*
X78487Y260461D01*
X81288Y261621D01*
X96512Y261621D01*
X99313Y260461D01*
X101457Y258317D01*
X102617Y255516D01*
X102617Y252484D01*
X101457Y249683D01*
X99313Y247539D01*
X96512Y246379D01*
X81288Y246379D01*
G37*
%LPD*%
%LPC*%
G36*
X213224Y244474D02*
X213224Y244474D01*
X207644Y250054D01*
X207644Y257946D01*
X213224Y263526D01*
X221116Y263526D01*
X226696Y257946D01*
X226696Y250054D01*
X221116Y244474D01*
X213224Y244474D01*
G37*
%LPD*%
%LPC*%
G36*
X222114Y117474D02*
X222114Y117474D01*
X216534Y123054D01*
X216534Y130946D01*
X222114Y136526D01*
X230006Y136526D01*
X235586Y130946D01*
X235586Y123054D01*
X230006Y117474D01*
X222114Y117474D01*
G37*
%LPD*%
%LPC*%
G36*
X52323Y52323D02*
X52323Y52323D01*
X52323Y69089D01*
X58375Y69089D01*
X69089Y58375D01*
X69089Y52323D01*
X52323Y52323D01*
G37*
%LPD*%
%LPC*%
G36*
X32511Y52323D02*
X32511Y52323D01*
X32511Y58375D01*
X43225Y69089D01*
X49277Y69089D01*
X49277Y52323D01*
X32511Y52323D01*
G37*
%LPD*%
%LPC*%
G36*
X52323Y32511D02*
X52323Y32511D01*
X52323Y49277D01*
X69089Y49277D01*
X69089Y43225D01*
X58375Y32511D01*
X52323Y32511D01*
G37*
%LPD*%
%LPC*%
G36*
X43225Y32511D02*
X43225Y32511D01*
X32511Y43225D01*
X32511Y49277D01*
X49277Y49277D01*
X49277Y32511D01*
X43225Y32511D01*
G37*
%LPD*%
%LPC*%
G36*
X377843Y462279D02*
X377843Y462279D01*
X373379Y466743D01*
X373379Y473057D01*
X377843Y477521D01*
X384157Y477521D01*
X388621Y473057D01*
X388621Y466743D01*
X384157Y462279D01*
X377843Y462279D01*
G37*
%LPD*%
%LPC*%
G36*
X339743Y462279D02*
X339743Y462279D01*
X335279Y466743D01*
X335279Y473057D01*
X339743Y477521D01*
X346057Y477521D01*
X350521Y473057D01*
X350521Y466743D01*
X346057Y462279D01*
X339743Y462279D01*
G37*
%LPD*%
%LPC*%
G36*
X200043Y449579D02*
X200043Y449579D01*
X195579Y454043D01*
X195579Y460357D01*
X200043Y464821D01*
X206357Y464821D01*
X210821Y460357D01*
X210821Y454043D01*
X206357Y449579D01*
X200043Y449579D01*
G37*
%LPD*%
%LPC*%
G36*
X352443Y106679D02*
X352443Y106679D01*
X347979Y111143D01*
X347979Y117457D01*
X352443Y121921D01*
X358757Y121921D01*
X363221Y117457D01*
X363221Y111143D01*
X358757Y106679D01*
X352443Y106679D01*
G37*
%LPD*%
%LPC*%
G36*
X428643Y106679D02*
X428643Y106679D01*
X424179Y111143D01*
X424179Y117457D01*
X428643Y121921D01*
X434957Y121921D01*
X439421Y117457D01*
X439421Y111143D01*
X434957Y106679D01*
X428643Y106679D01*
G37*
%LPD*%
%LPC*%
G36*
X161943Y93979D02*
X161943Y93979D01*
X157479Y98443D01*
X157479Y104757D01*
X161943Y109221D01*
X168257Y109221D01*
X172721Y104757D01*
X172721Y98443D01*
X168257Y93979D01*
X161943Y93979D01*
G37*
%LPD*%
%LPC*%
G36*
X415943Y68579D02*
X415943Y68579D01*
X411479Y73043D01*
X411479Y79357D01*
X415943Y83821D01*
X422257Y83821D01*
X426721Y79357D01*
X426721Y73043D01*
X422257Y68579D01*
X415943Y68579D01*
G37*
%LPD*%
%LPC*%
G36*
X314343Y55879D02*
X314343Y55879D01*
X309879Y60343D01*
X309879Y66657D01*
X314343Y71121D01*
X320657Y71121D01*
X325121Y66657D01*
X325121Y60343D01*
X320657Y55879D01*
X314343Y55879D01*
G37*
%LPD*%
%LPC*%
G36*
X200043Y424179D02*
X200043Y424179D01*
X195579Y428643D01*
X195579Y434957D01*
X200043Y439421D01*
X206357Y439421D01*
X210821Y434957D01*
X210821Y428643D01*
X206357Y424179D01*
X200043Y424179D01*
G37*
%LPD*%
%LPC*%
G36*
X111143Y424179D02*
X111143Y424179D01*
X106679Y428643D01*
X106679Y434957D01*
X111143Y439421D01*
X117457Y439421D01*
X121921Y434957D01*
X121921Y428643D01*
X117457Y424179D01*
X111143Y424179D01*
G37*
%LPD*%
%LPC*%
G36*
X136543Y424179D02*
X136543Y424179D01*
X132079Y428643D01*
X132079Y434957D01*
X136543Y439421D01*
X142857Y439421D01*
X147321Y434957D01*
X147321Y428643D01*
X142857Y424179D01*
X136543Y424179D01*
G37*
%LPD*%
%LPC*%
G36*
X85743Y373379D02*
X85743Y373379D01*
X81279Y377843D01*
X81279Y384157D01*
X85743Y388621D01*
X92057Y388621D01*
X96521Y384157D01*
X96521Y377843D01*
X92057Y373379D01*
X85743Y373379D01*
G37*
%LPD*%
%LPC*%
G36*
X161943Y373379D02*
X161943Y373379D01*
X157479Y377843D01*
X157479Y384157D01*
X161943Y388621D01*
X168257Y388621D01*
X172721Y384157D01*
X172721Y377843D01*
X168257Y373379D01*
X161943Y373379D01*
G37*
%LPD*%
%LPC*%
G36*
X377843Y30479D02*
X377843Y30479D01*
X373379Y34943D01*
X373379Y41257D01*
X377843Y45721D01*
X384157Y45721D01*
X388621Y41257D01*
X388621Y34943D01*
X384157Y30479D01*
X377843Y30479D01*
G37*
%LPD*%
%LPC*%
G36*
X415943Y335279D02*
X415943Y335279D01*
X411479Y339743D01*
X411479Y346057D01*
X415943Y350521D01*
X422257Y350521D01*
X426721Y346057D01*
X426721Y339743D01*
X422257Y335279D01*
X415943Y335279D01*
G37*
%LPD*%
%LPC*%
G36*
X339743Y335279D02*
X339743Y335279D01*
X335279Y339743D01*
X335279Y346057D01*
X339743Y350521D01*
X346057Y350521D01*
X350521Y346057D01*
X350521Y339743D01*
X346057Y335279D01*
X339743Y335279D01*
G37*
%LPD*%
%LPC*%
G36*
X136543Y322579D02*
X136543Y322579D01*
X132079Y327043D01*
X132079Y333357D01*
X136543Y337821D01*
X142857Y337821D01*
X147321Y333357D01*
X147321Y327043D01*
X142857Y322579D01*
X136543Y322579D01*
G37*
%LPD*%
%LPC*%
G36*
X60343Y322579D02*
X60343Y322579D01*
X55879Y327043D01*
X55879Y333357D01*
X60343Y337821D01*
X66657Y337821D01*
X71121Y333357D01*
X71121Y327043D01*
X66657Y322579D01*
X60343Y322579D01*
G37*
%LPD*%
%LPC*%
G36*
X377843Y309879D02*
X377843Y309879D01*
X373379Y314343D01*
X373379Y320657D01*
X377843Y325121D01*
X384157Y325121D01*
X388621Y320657D01*
X388621Y314343D01*
X384157Y309879D01*
X377843Y309879D01*
G37*
%LPD*%
%LPC*%
G36*
X415943Y309879D02*
X415943Y309879D01*
X411479Y314343D01*
X411479Y320657D01*
X415943Y325121D01*
X422257Y325121D01*
X426721Y320657D01*
X426721Y314343D01*
X422257Y309879D01*
X415943Y309879D01*
G37*
%LPD*%
%LPC*%
G36*
X136543Y297179D02*
X136543Y297179D01*
X132079Y301643D01*
X132079Y307957D01*
X136543Y312421D01*
X142857Y312421D01*
X147321Y307957D01*
X147321Y301643D01*
X142857Y297179D01*
X136543Y297179D01*
G37*
%LPD*%
%LPC*%
G36*
X60343Y297179D02*
X60343Y297179D01*
X55879Y301643D01*
X55879Y307957D01*
X60343Y312421D01*
X66657Y312421D01*
X71121Y307957D01*
X71121Y301643D01*
X66657Y297179D01*
X60343Y297179D01*
G37*
%LPD*%
%LPC*%
G36*
X47643Y284479D02*
X47643Y284479D01*
X43179Y288943D01*
X43179Y295257D01*
X47643Y299721D01*
X53957Y299721D01*
X58421Y295257D01*
X58421Y288943D01*
X53957Y284479D01*
X47643Y284479D01*
G37*
%LPD*%
%LPC*%
G36*
X301643Y30479D02*
X301643Y30479D01*
X297179Y34943D01*
X297179Y41257D01*
X301643Y45721D01*
X307957Y45721D01*
X312421Y41257D01*
X312421Y34943D01*
X307957Y30479D01*
X301643Y30479D01*
G37*
%LPD*%
%LPC*%
G36*
X339743Y233679D02*
X339743Y233679D01*
X335279Y238143D01*
X335279Y244457D01*
X339743Y248921D01*
X346057Y248921D01*
X350521Y244457D01*
X350521Y238143D01*
X346057Y233679D01*
X339743Y233679D01*
G37*
%LPD*%
%LPC*%
G36*
X377843Y233679D02*
X377843Y233679D01*
X373379Y238143D01*
X373379Y244457D01*
X377843Y248921D01*
X384157Y248921D01*
X388621Y244457D01*
X388621Y238143D01*
X384157Y233679D01*
X377843Y233679D01*
G37*
%LPD*%
%LPC*%
G36*
X47643Y208279D02*
X47643Y208279D01*
X43179Y212743D01*
X43179Y219057D01*
X47643Y223521D01*
X53957Y223521D01*
X58421Y219057D01*
X58421Y212743D01*
X53957Y208279D01*
X47643Y208279D01*
G37*
%LPD*%
%LPC*%
G36*
X352443Y208279D02*
X352443Y208279D01*
X347979Y212743D01*
X347979Y219057D01*
X352443Y223521D01*
X358757Y223521D01*
X363221Y219057D01*
X363221Y212743D01*
X358757Y208279D01*
X352443Y208279D01*
G37*
%LPD*%
%LPC*%
G36*
X47643Y170179D02*
X47643Y170179D01*
X43179Y174643D01*
X43179Y180957D01*
X47643Y185421D01*
X53957Y185421D01*
X58421Y180957D01*
X58421Y174643D01*
X53957Y170179D01*
X47643Y170179D01*
G37*
%LPD*%
%LPC*%
G36*
X47643Y93979D02*
X47643Y93979D01*
X43179Y98443D01*
X43179Y104757D01*
X47643Y109221D01*
X53957Y109221D01*
X58421Y104757D01*
X58421Y98443D01*
X53957Y93979D01*
X47643Y93979D01*
G37*
%LPD*%
%LPC*%
G36*
X390543Y132079D02*
X390543Y132079D01*
X386079Y136543D01*
X386079Y142857D01*
X390543Y147321D01*
X396857Y147321D01*
X401321Y142857D01*
X401321Y136543D01*
X396857Y132079D01*
X390543Y132079D01*
G37*
%LPD*%
%LPC*%
G36*
X161943Y132079D02*
X161943Y132079D01*
X157479Y136543D01*
X157479Y142857D01*
X161943Y147321D01*
X168257Y147321D01*
X172721Y142857D01*
X172721Y136543D01*
X168257Y132079D01*
X161943Y132079D01*
G37*
%LPD*%
%LPC*%
G36*
X90423Y179323D02*
X90423Y179323D01*
X90423Y186437D01*
X95847Y186437D01*
X97515Y186105D01*
X99087Y185454D01*
X100502Y184509D01*
X101705Y183306D01*
X102650Y181891D01*
X103301Y180319D01*
X103499Y179323D01*
X90423Y179323D01*
G37*
%LPD*%
%LPC*%
G36*
X74301Y179323D02*
X74301Y179323D01*
X74499Y180319D01*
X75150Y181891D01*
X76095Y183306D01*
X77298Y184509D01*
X78713Y185454D01*
X80285Y186105D01*
X81953Y186437D01*
X87377Y186437D01*
X87377Y179323D01*
X74301Y179323D01*
G37*
%LPD*%
%LPC*%
G36*
X90423Y169163D02*
X90423Y169163D01*
X90423Y176277D01*
X103499Y176277D01*
X103301Y175281D01*
X102650Y173709D01*
X101705Y172294D01*
X100502Y171091D01*
X99087Y170146D01*
X97515Y169495D01*
X95847Y169163D01*
X90423Y169163D01*
G37*
%LPD*%
%LPC*%
G36*
X81953Y169163D02*
X81953Y169163D01*
X80285Y169495D01*
X78713Y170146D01*
X77298Y171091D01*
X76095Y172294D01*
X75150Y173709D01*
X74499Y175281D01*
X74301Y176277D01*
X87377Y176277D01*
X87377Y169163D01*
X81953Y169163D01*
G37*
%LPD*%
%LPC*%
G36*
X306323Y446023D02*
X306323Y446023D01*
X306323Y455042D01*
X309167Y455042D01*
X315342Y448867D01*
X315342Y446023D01*
X306323Y446023D01*
G37*
%LPD*%
%LPC*%
G36*
X268223Y268223D02*
X268223Y268223D01*
X268223Y277242D01*
X271067Y277242D01*
X277242Y271067D01*
X277242Y268223D01*
X268223Y268223D01*
G37*
%LPD*%
%LPC*%
G36*
X204723Y306323D02*
X204723Y306323D01*
X204723Y315342D01*
X207567Y315342D01*
X213742Y309167D01*
X213742Y306323D01*
X204723Y306323D01*
G37*
%LPD*%
%LPC*%
G36*
X218693Y204723D02*
X218693Y204723D01*
X218693Y213742D01*
X221537Y213742D01*
X227712Y207567D01*
X227712Y204723D01*
X218693Y204723D01*
G37*
%LPD*%
%LPC*%
G36*
X294258Y446023D02*
X294258Y446023D01*
X294258Y448867D01*
X300433Y455042D01*
X303277Y455042D01*
X303277Y446023D01*
X294258Y446023D01*
G37*
%LPD*%
%LPC*%
G36*
X192658Y306323D02*
X192658Y306323D01*
X192658Y309167D01*
X198833Y315342D01*
X201677Y315342D01*
X201677Y306323D01*
X192658Y306323D01*
G37*
%LPD*%
%LPC*%
G36*
X218693Y192658D02*
X218693Y192658D01*
X218693Y201677D01*
X227712Y201677D01*
X227712Y198833D01*
X221537Y192658D01*
X218693Y192658D01*
G37*
%LPD*%
%LPC*%
G36*
X206628Y204723D02*
X206628Y204723D01*
X206628Y207567D01*
X212803Y213742D01*
X215647Y213742D01*
X215647Y204723D01*
X206628Y204723D01*
G37*
%LPD*%
%LPC*%
G36*
X256158Y268223D02*
X256158Y268223D01*
X256158Y271067D01*
X262333Y277242D01*
X265177Y277242D01*
X265177Y268223D01*
X256158Y268223D01*
G37*
%LPD*%
%LPC*%
G36*
X268223Y256158D02*
X268223Y256158D01*
X268223Y265177D01*
X277242Y265177D01*
X277242Y262333D01*
X271067Y256158D01*
X268223Y256158D01*
G37*
%LPD*%
%LPC*%
G36*
X306323Y433958D02*
X306323Y433958D01*
X306323Y442977D01*
X315342Y442977D01*
X315342Y440133D01*
X309167Y433958D01*
X306323Y433958D01*
G37*
%LPD*%
%LPC*%
G36*
X204723Y294258D02*
X204723Y294258D01*
X204723Y303277D01*
X213742Y303277D01*
X213742Y300433D01*
X207567Y294258D01*
X204723Y294258D01*
G37*
%LPD*%
%LPC*%
G36*
X300433Y433958D02*
X300433Y433958D01*
X294258Y440133D01*
X294258Y442977D01*
X303277Y442977D01*
X303277Y433958D01*
X300433Y433958D01*
G37*
%LPD*%
%LPC*%
G36*
X212803Y192658D02*
X212803Y192658D01*
X206628Y198833D01*
X206628Y201677D01*
X215647Y201677D01*
X215647Y192658D01*
X212803Y192658D01*
G37*
%LPD*%
%LPC*%
G36*
X262333Y256158D02*
X262333Y256158D01*
X256158Y262333D01*
X256158Y265177D01*
X265177Y265177D01*
X265177Y256158D01*
X262333Y256158D01*
G37*
%LPD*%
%LPC*%
G36*
X198833Y294258D02*
X198833Y294258D01*
X192658Y300433D01*
X192658Y303277D01*
X201677Y303277D01*
X201677Y294258D01*
X198833Y294258D01*
G37*
%LPD*%
%LPC*%
G36*
X254899Y191999D02*
X254899Y191999D01*
X254899Y196041D01*
X264734Y196041D01*
X265381Y195868D01*
X265960Y195533D01*
X266433Y195060D01*
X266768Y194481D01*
X266941Y193834D01*
X266941Y191999D01*
X254899Y191999D01*
G37*
%LPD*%
%LPC*%
G36*
X268199Y343799D02*
X268199Y343799D01*
X268199Y355841D01*
X270034Y355841D01*
X270681Y355668D01*
X271260Y355333D01*
X271733Y354860D01*
X272068Y354281D01*
X272241Y353634D01*
X272241Y343799D01*
X268199Y343799D01*
G37*
%LPD*%
%LPC*%
G36*
X268199Y328759D02*
X268199Y328759D01*
X268199Y340801D01*
X272241Y340801D01*
X272241Y330966D01*
X272068Y330319D01*
X271733Y329740D01*
X271260Y329267D01*
X270681Y328932D01*
X270034Y328759D01*
X268199Y328759D01*
G37*
%LPD*%
%LPC*%
G36*
X239859Y191999D02*
X239859Y191999D01*
X239859Y193834D01*
X240032Y194481D01*
X240367Y195060D01*
X240840Y195533D01*
X241419Y195868D01*
X242066Y196041D01*
X251901Y196041D01*
X251901Y191999D01*
X239859Y191999D01*
G37*
%LPD*%
%LPC*%
G36*
X254899Y189001D02*
X254899Y189001D01*
X266941Y189001D01*
X266941Y187166D01*
X266768Y186519D01*
X266433Y185940D01*
X265960Y185467D01*
X265381Y185132D01*
X264734Y184959D01*
X254899Y184959D01*
X254899Y189001D01*
G37*
%LPD*%
%LPC*%
G36*
X261159Y343799D02*
X261159Y343799D01*
X261159Y353634D01*
X261332Y354281D01*
X261667Y354860D01*
X262140Y355333D01*
X262719Y355668D01*
X263366Y355841D01*
X265201Y355841D01*
X265201Y343799D01*
X261159Y343799D01*
G37*
%LPD*%
%LPC*%
G36*
X263366Y328759D02*
X263366Y328759D01*
X262719Y328932D01*
X262140Y329267D01*
X261667Y329740D01*
X261332Y330319D01*
X261159Y330966D01*
X261159Y340801D01*
X265201Y340801D01*
X265201Y328759D01*
X263366Y328759D01*
G37*
%LPD*%
%LPC*%
G36*
X242066Y184959D02*
X242066Y184959D01*
X241419Y185132D01*
X240840Y185467D01*
X240367Y185940D01*
X240032Y186519D01*
X239859Y187166D01*
X239859Y189001D01*
X251901Y189001D01*
X251901Y184959D01*
X242066Y184959D01*
G37*
%LPD*%
%LPC*%
G36*
X90423Y103123D02*
X90423Y103123D01*
X90423Y110237D01*
X92477Y110237D01*
X97537Y105177D01*
X97537Y103123D01*
X90423Y103123D01*
G37*
%LPD*%
%LPC*%
G36*
X395223Y369823D02*
X395223Y369823D01*
X395223Y376937D01*
X397277Y376937D01*
X402337Y371877D01*
X402337Y369823D01*
X395223Y369823D01*
G37*
%LPD*%
%LPC*%
G36*
X80263Y103123D02*
X80263Y103123D01*
X80263Y105177D01*
X85323Y110237D01*
X87377Y110237D01*
X87377Y103123D01*
X80263Y103123D01*
G37*
%LPD*%
%LPC*%
G36*
X385063Y369823D02*
X385063Y369823D01*
X385063Y371877D01*
X390123Y376937D01*
X392177Y376937D01*
X392177Y369823D01*
X385063Y369823D01*
G37*
%LPD*%
%LPC*%
G36*
X90423Y92963D02*
X90423Y92963D01*
X90423Y100077D01*
X97537Y100077D01*
X97537Y98023D01*
X92477Y92963D01*
X90423Y92963D01*
G37*
%LPD*%
%LPC*%
G36*
X395223Y359663D02*
X395223Y359663D01*
X395223Y366777D01*
X402337Y366777D01*
X402337Y364723D01*
X397277Y359663D01*
X395223Y359663D01*
G37*
%LPD*%
%LPC*%
G36*
X390123Y359663D02*
X390123Y359663D01*
X385063Y364723D01*
X385063Y366777D01*
X392177Y366777D01*
X392177Y359663D01*
X390123Y359663D01*
G37*
%LPD*%
%LPC*%
G36*
X85323Y92963D02*
X85323Y92963D01*
X80263Y98023D01*
X80263Y100077D01*
X87377Y100077D01*
X87377Y92963D01*
X85323Y92963D01*
G37*
%LPD*%
%LPC*%
G36*
X304799Y444499D02*
X304799Y444499D01*
X304799Y444501D01*
X304801Y444501D01*
X304801Y444499D01*
X304799Y444499D01*
G37*
%LPD*%
%LPC*%
G36*
X217169Y203199D02*
X217169Y203199D01*
X217169Y203201D01*
X217171Y203201D01*
X217171Y203199D01*
X217169Y203199D01*
G37*
%LPD*%
%LPC*%
G36*
X266699Y266699D02*
X266699Y266699D01*
X266699Y266701D01*
X266701Y266701D01*
X266701Y266699D01*
X266699Y266699D01*
G37*
%LPD*%
%LPC*%
G36*
X88899Y101599D02*
X88899Y101599D01*
X88899Y101601D01*
X88901Y101601D01*
X88901Y101599D01*
X88899Y101599D01*
G37*
%LPD*%
%LPC*%
G36*
X50799Y50799D02*
X50799Y50799D01*
X50799Y50801D01*
X50801Y50801D01*
X50801Y50799D01*
X50799Y50799D01*
G37*
%LPD*%
%LPC*%
G36*
X393699Y368299D02*
X393699Y368299D01*
X393699Y368301D01*
X393701Y368301D01*
X393701Y368299D01*
X393699Y368299D01*
G37*
%LPD*%
%LPC*%
G36*
X203199Y304799D02*
X203199Y304799D01*
X203199Y304801D01*
X203201Y304801D01*
X203201Y304799D01*
X203199Y304799D01*
G37*
%LPD*%
%LPC*%
G36*
X88899Y177799D02*
X88899Y177799D01*
X88899Y177801D01*
X88901Y177801D01*
X88901Y177799D01*
X88899Y177799D01*
G37*
%LPD*%
D10*
X12700Y558800D03*
X508000Y558800D03*
D11*
X507350Y558800D02*
X13350Y558800D01*
X38700Y561992D01*
X38700Y555608D01*
X13350Y558800D01*
X38700Y560100D01*
X38700Y557500D02*
X13350Y558800D01*
X38700Y561400D01*
X38700Y556200D02*
X13350Y558800D01*
X482000Y561992D02*
X507350Y558800D01*
X482000Y561992D02*
X482000Y555608D01*
X507350Y558800D01*
X482000Y560100D01*
X482000Y557500D02*
X507350Y558800D01*
X482000Y561400D01*
X482000Y556200D02*
X507350Y558800D01*
D12*
X232814Y581563D02*
X229202Y568919D01*
X238233Y568919D01*
X235524Y572532D02*
X235524Y565307D01*
X248446Y572532D02*
X253864Y572532D01*
X248446Y572532D02*
X248328Y572534D01*
X248210Y572540D01*
X248092Y572549D01*
X247975Y572563D01*
X247858Y572580D01*
X247741Y572601D01*
X247626Y572626D01*
X247511Y572655D01*
X247397Y572688D01*
X247285Y572724D01*
X247174Y572764D01*
X247064Y572807D01*
X246955Y572854D01*
X246848Y572904D01*
X246743Y572959D01*
X246640Y573016D01*
X246539Y573077D01*
X246439Y573141D01*
X246342Y573208D01*
X246247Y573278D01*
X246155Y573352D01*
X246064Y573428D01*
X245977Y573508D01*
X245892Y573590D01*
X245810Y573675D01*
X245730Y573762D01*
X245654Y573853D01*
X245580Y573945D01*
X245510Y574040D01*
X245443Y574137D01*
X245379Y574237D01*
X245318Y574338D01*
X245261Y574441D01*
X245206Y574546D01*
X245156Y574653D01*
X245109Y574762D01*
X245066Y574872D01*
X245026Y574983D01*
X244990Y575095D01*
X244957Y575209D01*
X244928Y575324D01*
X244903Y575439D01*
X244882Y575556D01*
X244865Y575673D01*
X244851Y575790D01*
X244842Y575908D01*
X244836Y576026D01*
X244834Y576144D01*
X244833Y576144D02*
X244833Y577047D01*
X244835Y577180D01*
X244841Y577312D01*
X244851Y577444D01*
X244864Y577576D01*
X244882Y577708D01*
X244903Y577838D01*
X244928Y577969D01*
X244957Y578098D01*
X244990Y578226D01*
X245026Y578354D01*
X245066Y578480D01*
X245110Y578605D01*
X245158Y578729D01*
X245209Y578851D01*
X245264Y578972D01*
X245322Y579091D01*
X245384Y579209D01*
X245449Y579324D01*
X245518Y579438D01*
X245589Y579549D01*
X245665Y579658D01*
X245743Y579765D01*
X245824Y579870D01*
X245909Y579972D01*
X245996Y580072D01*
X246086Y580169D01*
X246179Y580264D01*
X246275Y580355D01*
X246373Y580444D01*
X246474Y580530D01*
X246578Y580613D01*
X246684Y580693D01*
X246792Y580769D01*
X246902Y580843D01*
X247015Y580913D01*
X247129Y580980D01*
X247246Y581043D01*
X247364Y581103D01*
X247484Y581160D01*
X247606Y581213D01*
X247729Y581262D01*
X247853Y581308D01*
X247979Y581350D01*
X248106Y581388D01*
X248234Y581423D01*
X248363Y581454D01*
X248492Y581481D01*
X248623Y581504D01*
X248754Y581524D01*
X248886Y581539D01*
X249018Y581551D01*
X249150Y581559D01*
X249283Y581563D01*
X249415Y581563D01*
X249548Y581559D01*
X249680Y581551D01*
X249812Y581539D01*
X249944Y581524D01*
X250075Y581504D01*
X250206Y581481D01*
X250335Y581454D01*
X250464Y581423D01*
X250592Y581388D01*
X250719Y581350D01*
X250845Y581308D01*
X250969Y581262D01*
X251092Y581213D01*
X251214Y581160D01*
X251334Y581103D01*
X251452Y581043D01*
X251569Y580980D01*
X251683Y580913D01*
X251796Y580843D01*
X251906Y580769D01*
X252014Y580693D01*
X252120Y580613D01*
X252224Y580530D01*
X252325Y580444D01*
X252423Y580355D01*
X252519Y580264D01*
X252612Y580169D01*
X252702Y580072D01*
X252789Y579972D01*
X252874Y579870D01*
X252955Y579765D01*
X253033Y579658D01*
X253109Y579549D01*
X253180Y579438D01*
X253249Y579324D01*
X253314Y579209D01*
X253376Y579091D01*
X253434Y578972D01*
X253489Y578851D01*
X253540Y578729D01*
X253588Y578605D01*
X253632Y578480D01*
X253672Y578354D01*
X253708Y578226D01*
X253741Y578098D01*
X253770Y577969D01*
X253795Y577838D01*
X253816Y577708D01*
X253834Y577576D01*
X253847Y577444D01*
X253857Y577312D01*
X253863Y577180D01*
X253865Y577047D01*
X253864Y577047D02*
X253864Y572532D01*
X253862Y572357D01*
X253856Y572183D01*
X253845Y572009D01*
X253830Y571835D01*
X253811Y571661D01*
X253788Y571488D01*
X253761Y571316D01*
X253729Y571144D01*
X253694Y570973D01*
X253654Y570803D01*
X253610Y570634D01*
X253562Y570466D01*
X253510Y570299D01*
X253454Y570134D01*
X253394Y569970D01*
X253331Y569807D01*
X253263Y569647D01*
X253191Y569487D01*
X253116Y569330D01*
X253036Y569174D01*
X252953Y569021D01*
X252867Y568869D01*
X252776Y568720D01*
X252682Y568573D01*
X252585Y568428D01*
X252484Y568285D01*
X252380Y568145D01*
X252272Y568008D01*
X252161Y567873D01*
X252047Y567741D01*
X251930Y567612D01*
X251809Y567485D01*
X251686Y567362D01*
X251559Y567241D01*
X251430Y567124D01*
X251298Y567010D01*
X251163Y566899D01*
X251026Y566791D01*
X250886Y566687D01*
X250743Y566586D01*
X250598Y566489D01*
X250451Y566395D01*
X250302Y566304D01*
X250150Y566218D01*
X249997Y566135D01*
X249841Y566055D01*
X249684Y565980D01*
X249524Y565908D01*
X249364Y565840D01*
X249201Y565777D01*
X249037Y565717D01*
X248872Y565661D01*
X248705Y565609D01*
X248537Y565561D01*
X248368Y565517D01*
X248198Y565477D01*
X248027Y565442D01*
X247855Y565410D01*
X247683Y565383D01*
X247510Y565360D01*
X247336Y565341D01*
X247162Y565326D01*
X246988Y565315D01*
X246814Y565309D01*
X246639Y565307D01*
X259839Y565307D02*
X259839Y566210D01*
X260742Y566210D01*
X260742Y565307D01*
X259839Y565307D01*
X266717Y565307D02*
X272136Y565307D01*
X272254Y565309D01*
X272372Y565315D01*
X272490Y565324D01*
X272607Y565338D01*
X272724Y565355D01*
X272841Y565376D01*
X272956Y565401D01*
X273071Y565430D01*
X273185Y565463D01*
X273297Y565499D01*
X273408Y565539D01*
X273518Y565582D01*
X273627Y565629D01*
X273734Y565679D01*
X273839Y565734D01*
X273942Y565791D01*
X274043Y565852D01*
X274143Y565916D01*
X274240Y565983D01*
X274335Y566053D01*
X274427Y566127D01*
X274518Y566203D01*
X274605Y566283D01*
X274690Y566365D01*
X274772Y566450D01*
X274852Y566537D01*
X274928Y566628D01*
X275002Y566720D01*
X275072Y566815D01*
X275139Y566912D01*
X275203Y567012D01*
X275264Y567113D01*
X275321Y567216D01*
X275376Y567321D01*
X275426Y567428D01*
X275473Y567537D01*
X275516Y567647D01*
X275556Y567758D01*
X275592Y567870D01*
X275625Y567984D01*
X275654Y568099D01*
X275679Y568214D01*
X275700Y568331D01*
X275717Y568448D01*
X275731Y568565D01*
X275740Y568683D01*
X275746Y568801D01*
X275748Y568919D01*
X275748Y570726D01*
X275746Y570844D01*
X275740Y570962D01*
X275731Y571080D01*
X275717Y571197D01*
X275700Y571314D01*
X275679Y571431D01*
X275654Y571546D01*
X275625Y571661D01*
X275592Y571775D01*
X275556Y571887D01*
X275516Y571998D01*
X275473Y572108D01*
X275426Y572217D01*
X275376Y572324D01*
X275321Y572429D01*
X275264Y572532D01*
X275203Y572633D01*
X275139Y572733D01*
X275072Y572830D01*
X275002Y572925D01*
X274928Y573017D01*
X274852Y573108D01*
X274772Y573195D01*
X274690Y573280D01*
X274605Y573362D01*
X274518Y573442D01*
X274427Y573518D01*
X274335Y573592D01*
X274240Y573662D01*
X274143Y573729D01*
X274043Y573793D01*
X273942Y573854D01*
X273839Y573911D01*
X273734Y573966D01*
X273627Y574016D01*
X273518Y574063D01*
X273408Y574106D01*
X273297Y574146D01*
X273185Y574182D01*
X273071Y574215D01*
X272956Y574244D01*
X272841Y574269D01*
X272724Y574290D01*
X272607Y574307D01*
X272490Y574321D01*
X272372Y574330D01*
X272254Y574336D01*
X272136Y574338D01*
X266717Y574338D01*
X266717Y581563D01*
X275748Y581563D01*
X282348Y565307D02*
X286864Y565307D01*
X286997Y565309D01*
X287129Y565315D01*
X287261Y565325D01*
X287393Y565338D01*
X287525Y565356D01*
X287655Y565377D01*
X287786Y565402D01*
X287915Y565431D01*
X288043Y565464D01*
X288171Y565500D01*
X288297Y565540D01*
X288422Y565584D01*
X288546Y565632D01*
X288668Y565683D01*
X288789Y565738D01*
X288908Y565796D01*
X289026Y565858D01*
X289141Y565923D01*
X289255Y565992D01*
X289366Y566063D01*
X289475Y566139D01*
X289582Y566217D01*
X289687Y566298D01*
X289789Y566383D01*
X289889Y566470D01*
X289986Y566560D01*
X290081Y566653D01*
X290172Y566749D01*
X290261Y566847D01*
X290347Y566948D01*
X290430Y567052D01*
X290510Y567158D01*
X290586Y567266D01*
X290660Y567376D01*
X290730Y567489D01*
X290797Y567603D01*
X290860Y567720D01*
X290920Y567838D01*
X290977Y567958D01*
X291030Y568080D01*
X291079Y568203D01*
X291125Y568327D01*
X291167Y568453D01*
X291205Y568580D01*
X291240Y568708D01*
X291271Y568837D01*
X291298Y568966D01*
X291321Y569097D01*
X291341Y569228D01*
X291356Y569360D01*
X291368Y569492D01*
X291376Y569624D01*
X291380Y569757D01*
X291380Y569889D01*
X291376Y570022D01*
X291368Y570154D01*
X291356Y570286D01*
X291341Y570418D01*
X291321Y570549D01*
X291298Y570680D01*
X291271Y570809D01*
X291240Y570938D01*
X291205Y571066D01*
X291167Y571193D01*
X291125Y571319D01*
X291079Y571443D01*
X291030Y571566D01*
X290977Y571688D01*
X290920Y571808D01*
X290860Y571926D01*
X290797Y572043D01*
X290730Y572157D01*
X290660Y572270D01*
X290586Y572380D01*
X290510Y572488D01*
X290430Y572594D01*
X290347Y572698D01*
X290261Y572799D01*
X290172Y572897D01*
X290081Y572993D01*
X289986Y573086D01*
X289889Y573176D01*
X289789Y573263D01*
X289687Y573348D01*
X289582Y573429D01*
X289475Y573507D01*
X289366Y573583D01*
X289255Y573654D01*
X289141Y573723D01*
X289026Y573788D01*
X288908Y573850D01*
X288789Y573908D01*
X288668Y573963D01*
X288546Y574014D01*
X288422Y574062D01*
X288297Y574106D01*
X288171Y574146D01*
X288043Y574182D01*
X287915Y574215D01*
X287786Y574244D01*
X287655Y574269D01*
X287525Y574290D01*
X287393Y574308D01*
X287261Y574321D01*
X287129Y574331D01*
X286997Y574337D01*
X286864Y574339D01*
X287767Y581563D02*
X282348Y581563D01*
X287767Y581563D02*
X287886Y581561D01*
X288006Y581555D01*
X288125Y581545D01*
X288243Y581531D01*
X288362Y581514D01*
X288479Y581492D01*
X288596Y581467D01*
X288711Y581437D01*
X288826Y581404D01*
X288940Y581367D01*
X289052Y581327D01*
X289163Y581282D01*
X289272Y581234D01*
X289380Y581183D01*
X289486Y581128D01*
X289590Y581069D01*
X289692Y581007D01*
X289792Y580942D01*
X289890Y580873D01*
X289986Y580801D01*
X290079Y580726D01*
X290169Y580649D01*
X290257Y580568D01*
X290342Y580484D01*
X290424Y580397D01*
X290504Y580308D01*
X290580Y580216D01*
X290654Y580122D01*
X290724Y580025D01*
X290791Y579927D01*
X290855Y579826D01*
X290915Y579722D01*
X290972Y579617D01*
X291025Y579510D01*
X291075Y579402D01*
X291121Y579292D01*
X291163Y579180D01*
X291202Y579067D01*
X291237Y578953D01*
X291268Y578838D01*
X291296Y578721D01*
X291319Y578604D01*
X291339Y578487D01*
X291355Y578368D01*
X291367Y578249D01*
X291375Y578130D01*
X291379Y578011D01*
X291379Y577891D01*
X291375Y577772D01*
X291367Y577653D01*
X291355Y577534D01*
X291339Y577415D01*
X291319Y577298D01*
X291296Y577181D01*
X291268Y577064D01*
X291237Y576949D01*
X291202Y576835D01*
X291163Y576722D01*
X291121Y576610D01*
X291075Y576500D01*
X291025Y576392D01*
X290972Y576285D01*
X290915Y576180D01*
X290855Y576076D01*
X290791Y575975D01*
X290724Y575877D01*
X290654Y575780D01*
X290580Y575686D01*
X290504Y575594D01*
X290424Y575505D01*
X290342Y575418D01*
X290257Y575334D01*
X290169Y575253D01*
X290079Y575176D01*
X289986Y575101D01*
X289890Y575029D01*
X289792Y574960D01*
X289692Y574895D01*
X289590Y574833D01*
X289486Y574774D01*
X289380Y574719D01*
X289272Y574668D01*
X289163Y574620D01*
X289052Y574575D01*
X288940Y574535D01*
X288826Y574498D01*
X288711Y574465D01*
X288596Y574435D01*
X288479Y574410D01*
X288362Y574388D01*
X288243Y574371D01*
X288125Y574357D01*
X288006Y574347D01*
X287886Y574341D01*
X287767Y574339D01*
X287767Y574338D02*
X284154Y574338D01*
D13*
X317500Y266700D03*
X266700Y266700D03*
D14*
X217170Y254000D03*
X217170Y203200D03*
D15*
X226060Y127000D03*
X276860Y127000D03*
D13*
X254000Y304800D03*
X203200Y304800D03*
D15*
X226060Y77470D03*
X276860Y77470D03*
X254000Y444500D03*
X304800Y444500D03*
D16*
X50800Y50800D03*
X101600Y50800D03*
D17*
X50800Y431800D03*
X50800Y381000D03*
D18*
X203200Y457200D03*
X203200Y431800D03*
D19*
X25400Y165100D03*
X25400Y215900D03*
D20*
X114300Y431800D03*
X127000Y412750D03*
X139700Y431800D03*
D21*
X201930Y76200D03*
X201930Y152400D03*
D20*
X381000Y38100D03*
X304800Y38100D03*
X419100Y76200D03*
X342900Y76200D03*
D21*
X419100Y241300D03*
X419100Y317500D03*
X381000Y241300D03*
X381000Y317500D03*
D18*
X342900Y317500D03*
X342900Y241300D03*
D20*
X165100Y139700D03*
X88900Y139700D03*
D22*
X88900Y381000D03*
X165100Y381000D03*
D20*
X165100Y101600D03*
X88900Y101600D03*
D18*
X50800Y177800D03*
X50800Y101600D03*
D21*
X50800Y215900D03*
X50800Y292100D03*
D22*
X63500Y304800D03*
X139700Y304800D03*
D21*
X393700Y139700D03*
X393700Y215900D03*
D20*
X431800Y114300D03*
X355600Y114300D03*
D21*
X355600Y139700D03*
X355600Y215900D03*
X317500Y63500D03*
X317500Y139700D03*
D23*
X94996Y254000D02*
X82804Y254000D01*
X82804Y228600D02*
X94996Y228600D01*
X159004Y228600D02*
X171196Y228600D01*
X171196Y254000D02*
X159004Y254000D01*
X94996Y203200D02*
X82804Y203200D01*
X82804Y177800D02*
X94996Y177800D01*
X159004Y203200D02*
X171196Y203200D01*
X171196Y177800D02*
X159004Y177800D01*
D24*
X305400Y165100D03*
X253400Y165100D03*
X305400Y152400D03*
X305400Y177800D03*
X305400Y190500D03*
X253400Y152400D03*
X253400Y177800D03*
X253400Y190500D03*
X305400Y215900D03*
X253400Y215900D03*
X305400Y203200D03*
X305400Y228600D03*
X253400Y203200D03*
X253400Y228600D03*
D25*
X279400Y394300D03*
X279400Y342300D03*
X292100Y394300D03*
X266700Y394300D03*
X254000Y394300D03*
X292100Y342300D03*
X266700Y342300D03*
X254000Y342300D03*
X228600Y394300D03*
X228600Y342300D03*
X241300Y394300D03*
X215900Y394300D03*
X241300Y342300D03*
X215900Y342300D03*
D22*
X63500Y330200D03*
X139700Y330200D03*
X317500Y368300D03*
X393700Y368300D03*
X342900Y342900D03*
X419100Y342900D03*
D18*
X342900Y469900D03*
X342900Y393700D03*
X381000Y469900D03*
X381000Y393700D03*
D12*
X342900Y164592D02*
X306324Y164592D01*
X342900Y164592D02*
X393192Y214884D01*
X306324Y164592D02*
X305400Y165100D01*
X393192Y214884D02*
X393700Y215900D01*
X342900Y152400D02*
X305400Y152400D01*
X342900Y152400D02*
X355600Y139700D01*
X252984Y202692D02*
X237744Y202692D01*
X210312Y175260D01*
X210312Y161544D01*
X201168Y152400D01*
X252984Y202692D02*
X253400Y203200D01*
X201930Y152400D02*
X201168Y152400D01*
X305400Y190500D02*
X320040Y190500D01*
X323088Y193548D01*
X323088Y249936D01*
X316992Y256032D01*
X316992Y266700D01*
X317500Y266700D01*
X176784Y100584D02*
X201168Y76200D01*
X176784Y100584D02*
X176784Y111252D01*
X146304Y141732D01*
X146304Y207264D01*
X155448Y216408D01*
X158496Y216408D01*
X164592Y222504D01*
X164592Y228600D01*
X201168Y76200D02*
X201930Y76200D01*
X165100Y228600D02*
X164592Y228600D01*
X291084Y216408D02*
X304800Y216408D01*
X291084Y216408D02*
X281940Y225552D01*
X281940Y275844D01*
X252984Y304800D01*
X304800Y216408D02*
X305400Y215900D01*
X254000Y304800D02*
X252984Y304800D01*
X291084Y202692D02*
X304800Y202692D01*
X291084Y202692D02*
X288036Y199644D01*
X288036Y190500D01*
X294132Y184404D01*
X316992Y184404D01*
X326136Y175260D01*
X304800Y202692D02*
X305400Y203200D01*
D26*
X326136Y175260D03*
D12*
X228600Y327660D02*
X228600Y342300D01*
X228600Y327660D02*
X237744Y318516D01*
X324612Y318516D01*
X394716Y248412D01*
X411480Y248412D01*
X419100Y240792D01*
X419100Y241300D01*
D26*
X237744Y318516D03*
D12*
X292608Y342900D02*
X316992Y342900D01*
X342900Y316992D01*
X292608Y342900D02*
X292100Y342300D01*
X342900Y317500D02*
X342900Y316992D01*
X268224Y164592D02*
X254508Y164592D01*
X268224Y164592D02*
X269748Y163068D01*
X269748Y141732D02*
X269748Y140208D01*
X269748Y141732D02*
X269748Y163068D01*
X269748Y140208D02*
X262128Y132588D01*
X262128Y91440D01*
X275844Y77724D01*
X254508Y164592D02*
X253400Y165100D01*
X275844Y77724D02*
X276860Y77470D01*
X291084Y132588D02*
X281940Y141732D01*
X269748Y141732D01*
D26*
X291084Y132588D03*
D12*
X254508Y152400D02*
X254508Y105156D01*
X227076Y77724D01*
X253400Y152400D02*
X254508Y152400D01*
X227076Y77724D02*
X226060Y77470D01*
X254508Y394716D02*
X254508Y408432D01*
X251460Y411480D01*
X210312Y411480D01*
X176784Y377952D01*
X176784Y288036D01*
X108204Y219456D01*
X108204Y158496D01*
X89916Y140208D01*
X254000Y394300D02*
X254508Y394716D01*
X89916Y140208D02*
X88900Y139700D01*
X278892Y394716D02*
X278892Y438912D01*
X259080Y458724D01*
X246888Y458724D01*
X201168Y413004D01*
X128016Y413004D01*
X278892Y394716D02*
X279400Y394300D01*
X128016Y413004D02*
X127000Y412750D01*
X254508Y228600D02*
X254508Y216408D01*
X254508Y228600D02*
X253400Y228600D01*
X216408Y312420D02*
X216408Y341376D01*
X216408Y312420D02*
X245364Y283464D01*
X245364Y231648D01*
X248412Y228600D01*
X253400Y228600D01*
X216408Y341376D02*
X215900Y342300D01*
X288036Y178308D02*
X304800Y178308D01*
X288036Y178308D02*
X271272Y178308D01*
X254508Y178308D01*
X253400Y177800D01*
X304800Y178308D02*
X305400Y177800D01*
X342900Y92964D02*
X342900Y76200D01*
X342900Y92964D02*
X288036Y147828D01*
X288036Y178308D01*
X266700Y216408D02*
X254508Y216408D01*
X266700Y216408D02*
X271272Y211836D01*
X271272Y178308D01*
X253400Y215900D02*
X254508Y216408D01*
X169164Y178308D02*
X166116Y178308D01*
X169164Y178308D02*
X219456Y228600D01*
X242316Y228600D01*
X245364Y231648D01*
X166116Y178308D02*
X165100Y177800D01*
X240792Y358140D02*
X240792Y367284D01*
X240792Y358140D02*
X240792Y342900D01*
X240792Y367284D02*
X228600Y379476D01*
X228600Y394300D01*
X240792Y342900D02*
X241300Y342300D01*
X240792Y358140D02*
X242316Y358140D01*
D26*
X242316Y358140D03*
D12*
X254508Y356616D02*
X254508Y342900D01*
X254508Y356616D02*
X265176Y367284D01*
X309372Y367284D01*
X310896Y368808D01*
X316992Y368808D01*
X254508Y342900D02*
X254000Y342300D01*
X316992Y368808D02*
X317500Y368300D01*
X216408Y371856D02*
X216408Y393192D01*
X216408Y371856D02*
X234696Y353568D01*
X234696Y330708D01*
X240792Y324612D01*
X251460Y324612D01*
X254508Y327660D01*
X254508Y341376D01*
X216408Y393192D02*
X215900Y394300D01*
X254000Y342300D02*
X254508Y341376D01*
X278892Y342900D02*
X278892Y356616D01*
X281940Y359664D01*
X309372Y359664D01*
X312420Y356616D01*
X344424Y356616D01*
X381000Y393192D01*
X279400Y342300D02*
X278892Y342900D01*
X381000Y393192D02*
X381000Y393700D01*
X305400Y228600D02*
X289560Y228600D01*
D26*
X289560Y228600D03*
D12*
X240792Y371856D02*
X240792Y393192D01*
X240792Y371856D02*
X246888Y365760D01*
X240792Y393192D02*
X241300Y394300D01*
D26*
X246888Y365760D03*
D12*
X292608Y394716D02*
X327660Y394716D01*
X333756Y400812D01*
X335280Y400812D01*
X342900Y393192D01*
X292608Y394716D02*
X292100Y394300D01*
X342900Y393700D02*
X342900Y393192D01*
X266700Y394300D02*
X266700Y431292D01*
X254508Y443484D01*
X254000Y444500D01*
M02*
