G04 EAGLE Gerber RS-274X export*
G75*
%MOMM*%
%FSLAX34Y34*%
%LPD*%
%INBottom Copper*%
%IPPOS*%
%AMOC8*
5,1,8,0,0,1.08239X$1,22.5*%
G01*
%ADD10C,0.130000*%
%ADD11C,0.152400*%
%ADD12P,1.732040X8X202.500000*%
%ADD13P,1.732040X8X292.500000*%
%ADD14P,1.732040X8X22.500000*%
%ADD15P,3.409096X8X292.500000*%
%ADD16P,3.409096X8X202.500000*%
%ADD17P,1.319650X8X292.500000*%
%ADD18P,2.336880X8X22.500000*%
%ADD19P,1.319650X8X202.500000*%
%ADD20P,1.319650X8X112.500000*%
%ADD21P,1.319650X8X22.500000*%
%ADD22C,1.219200*%
%ADD23C,0.660400*%


D10*
X13040Y520700D02*
X507350Y520700D01*
X482000Y523892D01*
X482000Y517508D01*
X507350Y520700D01*
X482000Y522000D01*
X482000Y519400D02*
X507350Y520700D01*
X482000Y523300D01*
X482000Y518100D02*
X507350Y520700D01*
X12390Y517508D02*
X12390Y523892D01*
X9198Y520700D02*
X15583Y520700D01*
D11*
X287731Y543463D02*
X291343Y530819D01*
X282312Y530819D01*
X285021Y534432D02*
X285021Y527207D01*
X272099Y534432D02*
X266681Y534432D01*
X272099Y534432D02*
X272217Y534434D01*
X272335Y534440D01*
X272453Y534449D01*
X272570Y534463D01*
X272687Y534480D01*
X272804Y534501D01*
X272919Y534526D01*
X273034Y534555D01*
X273148Y534588D01*
X273260Y534624D01*
X273371Y534664D01*
X273481Y534707D01*
X273590Y534754D01*
X273697Y534804D01*
X273802Y534859D01*
X273905Y534916D01*
X274006Y534977D01*
X274106Y535041D01*
X274203Y535108D01*
X274298Y535178D01*
X274390Y535252D01*
X274481Y535328D01*
X274568Y535408D01*
X274653Y535490D01*
X274735Y535575D01*
X274815Y535662D01*
X274891Y535753D01*
X274965Y535845D01*
X275035Y535940D01*
X275102Y536037D01*
X275166Y536137D01*
X275227Y536238D01*
X275284Y536341D01*
X275339Y536446D01*
X275389Y536553D01*
X275436Y536662D01*
X275479Y536772D01*
X275519Y536883D01*
X275555Y536995D01*
X275588Y537109D01*
X275617Y537224D01*
X275642Y537339D01*
X275663Y537456D01*
X275680Y537573D01*
X275694Y537690D01*
X275703Y537808D01*
X275709Y537926D01*
X275711Y538044D01*
X275712Y538044D02*
X275712Y538947D01*
X275710Y539080D01*
X275704Y539212D01*
X275694Y539344D01*
X275681Y539476D01*
X275663Y539608D01*
X275642Y539738D01*
X275617Y539869D01*
X275588Y539998D01*
X275555Y540126D01*
X275519Y540254D01*
X275479Y540380D01*
X275435Y540505D01*
X275387Y540629D01*
X275336Y540751D01*
X275281Y540872D01*
X275223Y540991D01*
X275161Y541109D01*
X275096Y541224D01*
X275027Y541338D01*
X274956Y541449D01*
X274880Y541558D01*
X274802Y541665D01*
X274721Y541770D01*
X274636Y541872D01*
X274549Y541972D01*
X274459Y542069D01*
X274366Y542164D01*
X274270Y542255D01*
X274172Y542344D01*
X274071Y542430D01*
X273967Y542513D01*
X273861Y542593D01*
X273753Y542669D01*
X273643Y542743D01*
X273530Y542813D01*
X273416Y542880D01*
X273299Y542943D01*
X273181Y543003D01*
X273061Y543060D01*
X272939Y543113D01*
X272816Y543162D01*
X272692Y543208D01*
X272566Y543250D01*
X272439Y543288D01*
X272311Y543323D01*
X272182Y543354D01*
X272053Y543381D01*
X271922Y543404D01*
X271791Y543424D01*
X271659Y543439D01*
X271527Y543451D01*
X271395Y543459D01*
X271262Y543463D01*
X271130Y543463D01*
X270997Y543459D01*
X270865Y543451D01*
X270733Y543439D01*
X270601Y543424D01*
X270470Y543404D01*
X270339Y543381D01*
X270210Y543354D01*
X270081Y543323D01*
X269953Y543288D01*
X269826Y543250D01*
X269700Y543208D01*
X269576Y543162D01*
X269453Y543113D01*
X269331Y543060D01*
X269211Y543003D01*
X269093Y542943D01*
X268976Y542880D01*
X268862Y542813D01*
X268749Y542743D01*
X268639Y542669D01*
X268531Y542593D01*
X268425Y542513D01*
X268321Y542430D01*
X268220Y542344D01*
X268122Y542255D01*
X268026Y542164D01*
X267933Y542069D01*
X267843Y541972D01*
X267756Y541872D01*
X267671Y541770D01*
X267590Y541665D01*
X267512Y541558D01*
X267436Y541449D01*
X267365Y541338D01*
X267296Y541224D01*
X267231Y541109D01*
X267169Y540991D01*
X267111Y540872D01*
X267056Y540751D01*
X267005Y540629D01*
X266957Y540505D01*
X266913Y540380D01*
X266873Y540254D01*
X266837Y540126D01*
X266804Y539998D01*
X266775Y539869D01*
X266750Y539738D01*
X266729Y539608D01*
X266711Y539476D01*
X266698Y539344D01*
X266688Y539212D01*
X266682Y539080D01*
X266680Y538947D01*
X266681Y538947D02*
X266681Y534432D01*
X266683Y534257D01*
X266689Y534083D01*
X266700Y533909D01*
X266715Y533735D01*
X266734Y533561D01*
X266757Y533388D01*
X266784Y533216D01*
X266816Y533044D01*
X266851Y532873D01*
X266891Y532703D01*
X266935Y532534D01*
X266983Y532366D01*
X267035Y532199D01*
X267091Y532034D01*
X267151Y531870D01*
X267214Y531707D01*
X267282Y531547D01*
X267354Y531387D01*
X267429Y531230D01*
X267509Y531074D01*
X267592Y530921D01*
X267678Y530769D01*
X267769Y530620D01*
X267863Y530473D01*
X267960Y530328D01*
X268061Y530185D01*
X268165Y530045D01*
X268273Y529908D01*
X268384Y529773D01*
X268498Y529641D01*
X268615Y529512D01*
X268736Y529385D01*
X268859Y529262D01*
X268986Y529141D01*
X269115Y529024D01*
X269247Y528910D01*
X269382Y528799D01*
X269519Y528691D01*
X269659Y528587D01*
X269802Y528486D01*
X269947Y528389D01*
X270094Y528295D01*
X270243Y528204D01*
X270395Y528118D01*
X270548Y528035D01*
X270704Y527955D01*
X270861Y527880D01*
X271021Y527808D01*
X271181Y527740D01*
X271344Y527677D01*
X271508Y527617D01*
X271673Y527561D01*
X271840Y527509D01*
X272008Y527461D01*
X272177Y527417D01*
X272347Y527377D01*
X272518Y527342D01*
X272690Y527310D01*
X272862Y527283D01*
X273035Y527260D01*
X273209Y527241D01*
X273383Y527226D01*
X273557Y527215D01*
X273731Y527209D01*
X273906Y527207D01*
X260706Y527207D02*
X260706Y528110D01*
X259803Y528110D01*
X259803Y527207D01*
X260706Y527207D01*
X253828Y527207D02*
X248410Y527207D01*
X248292Y527209D01*
X248174Y527215D01*
X248056Y527224D01*
X247939Y527238D01*
X247822Y527255D01*
X247705Y527276D01*
X247590Y527301D01*
X247475Y527330D01*
X247361Y527363D01*
X247249Y527399D01*
X247138Y527439D01*
X247028Y527482D01*
X246919Y527529D01*
X246812Y527579D01*
X246707Y527634D01*
X246604Y527691D01*
X246503Y527752D01*
X246403Y527816D01*
X246306Y527883D01*
X246211Y527953D01*
X246119Y528027D01*
X246028Y528103D01*
X245941Y528183D01*
X245856Y528265D01*
X245774Y528350D01*
X245694Y528437D01*
X245618Y528528D01*
X245544Y528620D01*
X245474Y528715D01*
X245407Y528812D01*
X245343Y528912D01*
X245282Y529013D01*
X245225Y529116D01*
X245170Y529221D01*
X245120Y529328D01*
X245073Y529437D01*
X245030Y529547D01*
X244990Y529658D01*
X244954Y529770D01*
X244921Y529884D01*
X244892Y529999D01*
X244867Y530114D01*
X244846Y530231D01*
X244829Y530348D01*
X244815Y530465D01*
X244806Y530583D01*
X244800Y530701D01*
X244798Y530819D01*
X244797Y530819D02*
X244797Y532626D01*
X244798Y532626D02*
X244800Y532744D01*
X244806Y532862D01*
X244815Y532980D01*
X244829Y533097D01*
X244846Y533214D01*
X244867Y533331D01*
X244892Y533446D01*
X244921Y533561D01*
X244954Y533675D01*
X244990Y533787D01*
X245030Y533898D01*
X245073Y534008D01*
X245120Y534117D01*
X245170Y534224D01*
X245225Y534329D01*
X245282Y534432D01*
X245343Y534533D01*
X245407Y534633D01*
X245474Y534730D01*
X245544Y534825D01*
X245618Y534917D01*
X245694Y535008D01*
X245774Y535095D01*
X245856Y535180D01*
X245941Y535262D01*
X246028Y535342D01*
X246119Y535418D01*
X246211Y535492D01*
X246306Y535562D01*
X246403Y535629D01*
X246503Y535693D01*
X246604Y535754D01*
X246707Y535811D01*
X246812Y535866D01*
X246919Y535916D01*
X247028Y535963D01*
X247138Y536006D01*
X247249Y536046D01*
X247361Y536082D01*
X247475Y536115D01*
X247590Y536144D01*
X247705Y536169D01*
X247822Y536190D01*
X247939Y536207D01*
X248056Y536221D01*
X248174Y536230D01*
X248292Y536236D01*
X248410Y536238D01*
X253828Y536238D01*
X253828Y543463D01*
X244797Y543463D01*
X238197Y536238D02*
X232778Y536238D01*
X232660Y536236D01*
X232542Y536230D01*
X232424Y536221D01*
X232307Y536207D01*
X232190Y536190D01*
X232073Y536169D01*
X231958Y536144D01*
X231843Y536115D01*
X231729Y536082D01*
X231617Y536046D01*
X231506Y536006D01*
X231396Y535963D01*
X231287Y535916D01*
X231180Y535866D01*
X231075Y535811D01*
X230972Y535754D01*
X230871Y535693D01*
X230771Y535629D01*
X230674Y535562D01*
X230579Y535492D01*
X230487Y535418D01*
X230396Y535342D01*
X230309Y535262D01*
X230224Y535180D01*
X230142Y535095D01*
X230062Y535008D01*
X229986Y534917D01*
X229912Y534825D01*
X229842Y534730D01*
X229775Y534633D01*
X229711Y534533D01*
X229650Y534432D01*
X229593Y534329D01*
X229538Y534224D01*
X229488Y534117D01*
X229441Y534008D01*
X229398Y533898D01*
X229358Y533787D01*
X229322Y533675D01*
X229289Y533561D01*
X229260Y533446D01*
X229235Y533331D01*
X229214Y533214D01*
X229197Y533097D01*
X229183Y532980D01*
X229174Y532862D01*
X229168Y532744D01*
X229166Y532626D01*
X229166Y531723D01*
X229165Y531723D02*
X229167Y531590D01*
X229173Y531458D01*
X229183Y531326D01*
X229196Y531194D01*
X229214Y531062D01*
X229235Y530932D01*
X229260Y530801D01*
X229289Y530672D01*
X229322Y530544D01*
X229358Y530416D01*
X229398Y530290D01*
X229442Y530165D01*
X229490Y530041D01*
X229541Y529919D01*
X229596Y529798D01*
X229654Y529679D01*
X229716Y529561D01*
X229781Y529446D01*
X229850Y529332D01*
X229921Y529221D01*
X229997Y529112D01*
X230075Y529005D01*
X230156Y528900D01*
X230241Y528798D01*
X230328Y528698D01*
X230418Y528601D01*
X230511Y528506D01*
X230607Y528415D01*
X230705Y528326D01*
X230806Y528240D01*
X230910Y528157D01*
X231016Y528077D01*
X231124Y528001D01*
X231234Y527927D01*
X231347Y527857D01*
X231461Y527790D01*
X231578Y527727D01*
X231696Y527667D01*
X231816Y527610D01*
X231938Y527557D01*
X232061Y527508D01*
X232185Y527462D01*
X232311Y527420D01*
X232438Y527382D01*
X232566Y527347D01*
X232695Y527316D01*
X232824Y527289D01*
X232955Y527266D01*
X233086Y527246D01*
X233218Y527231D01*
X233350Y527219D01*
X233482Y527211D01*
X233615Y527207D01*
X233747Y527207D01*
X233880Y527211D01*
X234012Y527219D01*
X234144Y527231D01*
X234276Y527246D01*
X234407Y527266D01*
X234538Y527289D01*
X234667Y527316D01*
X234796Y527347D01*
X234924Y527382D01*
X235051Y527420D01*
X235177Y527462D01*
X235301Y527508D01*
X235424Y527557D01*
X235546Y527610D01*
X235666Y527667D01*
X235784Y527727D01*
X235901Y527790D01*
X236015Y527857D01*
X236128Y527927D01*
X236238Y528001D01*
X236346Y528077D01*
X236452Y528157D01*
X236556Y528240D01*
X236657Y528326D01*
X236755Y528415D01*
X236851Y528506D01*
X236944Y528601D01*
X237034Y528698D01*
X237121Y528798D01*
X237206Y528900D01*
X237287Y529005D01*
X237365Y529112D01*
X237441Y529221D01*
X237512Y529332D01*
X237581Y529446D01*
X237646Y529561D01*
X237708Y529679D01*
X237766Y529798D01*
X237821Y529919D01*
X237872Y530041D01*
X237920Y530165D01*
X237964Y530290D01*
X238004Y530416D01*
X238040Y530544D01*
X238073Y530672D01*
X238102Y530801D01*
X238127Y530932D01*
X238148Y531062D01*
X238166Y531194D01*
X238179Y531326D01*
X238189Y531458D01*
X238195Y531590D01*
X238197Y531723D01*
X238197Y536238D01*
X238195Y536413D01*
X238189Y536587D01*
X238178Y536761D01*
X238163Y536935D01*
X238144Y537109D01*
X238121Y537282D01*
X238094Y537454D01*
X238062Y537626D01*
X238027Y537797D01*
X237987Y537967D01*
X237943Y538136D01*
X237895Y538304D01*
X237843Y538471D01*
X237787Y538636D01*
X237727Y538800D01*
X237664Y538963D01*
X237596Y539123D01*
X237524Y539283D01*
X237449Y539440D01*
X237369Y539596D01*
X237286Y539749D01*
X237200Y539901D01*
X237109Y540050D01*
X237015Y540197D01*
X236918Y540342D01*
X236817Y540485D01*
X236713Y540625D01*
X236605Y540762D01*
X236494Y540897D01*
X236380Y541029D01*
X236263Y541158D01*
X236142Y541285D01*
X236019Y541408D01*
X235892Y541529D01*
X235763Y541646D01*
X235631Y541760D01*
X235496Y541871D01*
X235359Y541979D01*
X235219Y542083D01*
X235076Y542184D01*
X234931Y542281D01*
X234784Y542375D01*
X234635Y542466D01*
X234483Y542552D01*
X234330Y542635D01*
X234174Y542715D01*
X234017Y542790D01*
X233857Y542862D01*
X233697Y542930D01*
X233534Y542993D01*
X233370Y543053D01*
X233205Y543109D01*
X233038Y543161D01*
X232870Y543209D01*
X232701Y543253D01*
X232531Y543293D01*
X232360Y543328D01*
X232188Y543360D01*
X232016Y543387D01*
X231843Y543410D01*
X231669Y543429D01*
X231495Y543444D01*
X231321Y543455D01*
X231147Y543461D01*
X230972Y543463D01*
D12*
X317500Y266700D03*
X266700Y266700D03*
D13*
X217170Y254000D03*
X217170Y203200D03*
D14*
X226060Y127000D03*
X276860Y127000D03*
D12*
X254000Y304800D03*
X203200Y304800D03*
D14*
X226060Y77470D03*
X276860Y77470D03*
X254000Y444500D03*
X304800Y444500D03*
D15*
X50800Y50800D03*
X101600Y50800D03*
D16*
X50800Y431800D03*
X50800Y381000D03*
D17*
X203200Y457200D03*
X203200Y431800D03*
D18*
X25400Y165100D03*
X25400Y215900D03*
D19*
X114300Y431800D03*
X127000Y412750D03*
X139700Y431800D03*
D20*
X201930Y76200D03*
X201930Y152400D03*
D19*
X381000Y38100D03*
X304800Y38100D03*
X419100Y76200D03*
X342900Y76200D03*
D20*
X419100Y241300D03*
X419100Y317500D03*
X381000Y241300D03*
X381000Y317500D03*
D17*
X342900Y317500D03*
X342900Y241300D03*
D19*
X165100Y139700D03*
X88900Y139700D03*
D21*
X88900Y381000D03*
X165100Y381000D03*
D19*
X165100Y101600D03*
X88900Y101600D03*
D17*
X50800Y177800D03*
X50800Y101600D03*
D20*
X50800Y215900D03*
X50800Y292100D03*
D21*
X63500Y304800D03*
X139700Y304800D03*
D20*
X393700Y139700D03*
X393700Y215900D03*
D19*
X431800Y114300D03*
X355600Y114300D03*
D20*
X355600Y139700D03*
X355600Y215900D03*
X317500Y63500D03*
X317500Y139700D03*
D22*
X94996Y254000D02*
X82804Y254000D01*
X82804Y228600D02*
X94996Y228600D01*
X159004Y228600D02*
X171196Y228600D01*
X171196Y254000D02*
X159004Y254000D01*
X94996Y203200D02*
X82804Y203200D01*
X82804Y177800D02*
X94996Y177800D01*
X159004Y203200D02*
X171196Y203200D01*
X171196Y177800D02*
X159004Y177800D01*
D21*
X63500Y330200D03*
X139700Y330200D03*
X317500Y368300D03*
X393700Y368300D03*
X342900Y342900D03*
X419100Y342900D03*
D17*
X342900Y469900D03*
X342900Y393700D03*
X381000Y469900D03*
X381000Y393700D03*
D11*
X431292Y178308D02*
X431292Y114300D01*
X431292Y178308D02*
X393700Y215900D01*
X431292Y114300D02*
X431800Y114300D01*
X356616Y114300D02*
X356616Y138684D01*
X356616Y114300D02*
X355600Y114300D01*
X356616Y138684D02*
X355600Y139700D01*
X50292Y176784D02*
X36576Y176784D01*
X25908Y166116D01*
X50292Y176784D02*
X50800Y177800D01*
X25908Y166116D02*
X25400Y165100D01*
X76200Y202692D02*
X88392Y202692D01*
X76200Y202692D02*
X51816Y178308D01*
X88392Y202692D02*
X88900Y203200D01*
X51816Y178308D02*
X50800Y177800D01*
X166116Y117348D02*
X166116Y102108D01*
X166116Y117348D02*
X201168Y152400D01*
X166116Y102108D02*
X165100Y101600D01*
X201168Y152400D02*
X201930Y152400D01*
X201930Y76200D02*
X126492Y76200D01*
X102108Y51816D01*
X101600Y50800D01*
X165100Y228600D02*
X192024Y228600D01*
X216408Y252984D01*
X217170Y254000D01*
X355092Y242316D02*
X381000Y242316D01*
X355092Y242316D02*
X330708Y266700D01*
X317500Y266700D01*
X381000Y242316D02*
X381000Y241300D01*
X217932Y254508D02*
X217932Y283464D01*
X249936Y315468D01*
X268224Y315468D01*
X316992Y266700D01*
X217932Y254508D02*
X217170Y254000D01*
X316992Y266700D02*
X317500Y266700D01*
X225552Y143256D02*
X166116Y202692D01*
X225552Y143256D02*
X225552Y128016D01*
X166116Y202692D02*
X165100Y203200D01*
X225552Y128016D02*
X226060Y127000D01*
X306324Y64008D02*
X316992Y64008D01*
X306324Y64008D02*
X243840Y126492D01*
X227076Y126492D01*
X316992Y64008D02*
X317500Y63500D01*
X227076Y126492D02*
X226060Y127000D01*
X316992Y140208D02*
X316992Y242316D01*
X254508Y304800D01*
X316992Y140208D02*
X317500Y139700D01*
X254508Y304800D02*
X254000Y304800D01*
X64008Y304800D02*
X64008Y329184D01*
X63500Y330200D01*
X88392Y280416D02*
X88392Y254508D01*
X88392Y280416D02*
X64008Y304800D01*
X88392Y254508D02*
X88900Y254000D01*
X64008Y304800D02*
X63500Y304800D01*
X140208Y304800D02*
X140208Y329184D01*
X139700Y330200D01*
X164592Y280416D02*
X164592Y254508D01*
X164592Y280416D02*
X140208Y304800D01*
X164592Y254508D02*
X165100Y254000D01*
X140208Y304800D02*
X139700Y304800D01*
X326136Y175260D02*
X370332Y175260D01*
X419100Y126492D01*
X419100Y76200D01*
X368808Y38100D02*
X304800Y38100D01*
X368808Y38100D02*
X377952Y28956D01*
X384048Y28956D01*
X419100Y64008D01*
X419100Y76200D01*
D23*
X326136Y175260D03*
D11*
X166116Y160020D02*
X166116Y140208D01*
X166116Y160020D02*
X179832Y173736D01*
X179832Y181356D01*
X167640Y193548D01*
X155448Y193548D01*
X149352Y199644D01*
X149352Y231648D01*
X163068Y245364D01*
X175260Y245364D01*
X237744Y307848D01*
X237744Y318516D01*
X166116Y140208D02*
X165100Y139700D01*
D23*
X237744Y318516D03*
D11*
X342900Y318516D02*
X381000Y318516D01*
X342900Y318516D02*
X342900Y317500D01*
X381000Y318516D02*
X419100Y318516D01*
X419100Y317500D01*
X381000Y317500D02*
X381000Y318516D01*
X342900Y241300D02*
X342900Y201168D01*
X320040Y178308D01*
X320040Y149352D01*
X326136Y143256D01*
X326136Y135636D01*
X321564Y131064D01*
X292608Y131064D01*
X291084Y132588D01*
D23*
X291084Y132588D03*
D11*
X225552Y77724D02*
X213360Y77724D01*
X198120Y92964D01*
X47244Y92964D01*
X41148Y99060D01*
X41148Y105156D01*
X74676Y138684D01*
X88392Y138684D01*
X225552Y77724D02*
X226060Y77470D01*
X88900Y139700D02*
X88392Y138684D01*
X140208Y432816D02*
X202692Y432816D01*
X140208Y432816D02*
X139700Y431800D01*
X202692Y432816D02*
X203200Y431800D01*
X211836Y426720D02*
X166116Y381000D01*
X211836Y426720D02*
X211836Y449580D01*
X204216Y457200D01*
X166116Y381000D02*
X165100Y381000D01*
X203200Y457200D02*
X204216Y457200D01*
X50292Y216408D02*
X25908Y216408D01*
X50292Y216408D02*
X50800Y215900D01*
X25908Y216408D02*
X25400Y215900D01*
X64008Y228600D02*
X88900Y228600D01*
X64008Y228600D02*
X51816Y216408D01*
X50800Y215900D01*
X51816Y102108D02*
X76200Y102108D01*
X150876Y176784D01*
X164592Y176784D01*
X51816Y102108D02*
X50800Y101600D01*
X164592Y176784D02*
X165100Y177800D01*
X51816Y272796D02*
X51816Y291084D01*
X51816Y272796D02*
X86868Y237744D01*
X99060Y237744D01*
X150876Y185928D01*
X150876Y176784D01*
X51816Y291084D02*
X50800Y292100D01*
X355092Y342900D02*
X419100Y342900D01*
X355092Y342900D02*
X345948Y333756D01*
X266700Y333756D01*
X242316Y358140D01*
D23*
X242316Y358140D03*
D11*
X114300Y432816D02*
X51816Y432816D01*
X114300Y432816D02*
X114300Y431800D01*
X51816Y432816D02*
X50800Y431800D01*
X381000Y126492D02*
X381000Y105156D01*
X381000Y38100D01*
X381000Y126492D02*
X393192Y138684D01*
X393700Y139700D01*
X289560Y140208D02*
X289560Y228600D01*
X281940Y132588D02*
X277368Y128016D01*
X281940Y132588D02*
X289560Y140208D01*
X277368Y128016D02*
X276860Y127000D01*
X309372Y105156D02*
X381000Y105156D01*
X309372Y105156D02*
X281940Y132588D01*
X276860Y127000D01*
D23*
X289560Y228600D03*
D11*
X246888Y365760D02*
X240792Y365760D01*
X236220Y361188D01*
X236220Y355092D01*
X313944Y277368D01*
X358140Y277368D01*
X390144Y245364D01*
X390144Y237744D01*
X368808Y216408D01*
X356616Y216408D01*
X355600Y215900D01*
D23*
X246888Y365760D03*
D11*
X88900Y381000D02*
X50800Y381000D01*
X342900Y381000D02*
X342900Y342900D01*
X342900Y381000D02*
X333756Y390144D01*
X333756Y460248D01*
X342900Y469392D01*
X342900Y469900D01*
X342900Y470916D02*
X381000Y470916D01*
X381000Y469900D01*
X342900Y469900D02*
X342900Y470916D01*
X152400Y381000D02*
X88900Y381000D01*
X152400Y381000D02*
X161544Y371856D01*
X249936Y371856D01*
X268224Y390144D01*
X333756Y390144D01*
X254000Y444500D02*
X279400Y469900D01*
X342900Y469900D01*
M02*
