M48
;GenerationSoftware,Autodesk,EAGLE,9.2.2*%
;CreationDate,2019-02-19T01:38:59Z*%
FMAT,2
ICI,OFF
METRIC,TZ,000.000
T4C0.254
T3C0.813
T2C1.016
T1C1.118
%
G90
M71
T1
X5080Y5080
X5080Y38100
X10160Y5080
X5080Y43180
T2
X2540Y16510
X2540Y21590
T3
X34290Y34290
X41910Y34290
X34290Y46990
X34290Y39370
X38100Y46990
X31750Y26670
X26670Y26670
X21717Y25400
X21717Y20320
X22606Y12700
X27686Y12700
X25400Y30480
X20320Y30480
X22606Y7747
X27686Y7747
X25400Y44450
X30480Y44450
X38100Y39370
X20320Y45720
X20320Y43180
X11430Y43180
X12700Y41275
X13970Y43180
X20193Y7620
X20193Y15240
X38100Y3810
X30480Y3810
X41910Y7620
X34290Y7620
X41910Y24130
X41910Y31750
X38100Y24130
X38100Y31750
X34290Y31750
X34290Y24130
X16510Y13970
X8890Y13970
X8890Y38100
X16510Y38100
X16510Y10160
X8890Y10160
X5080Y17780
X5080Y10160
X5080Y21590
X5080Y29210
X6350Y30480
X13970Y30480
X39370Y13970
X39370Y21590
X43180Y11430
X35560Y11430
X35560Y13970
X35560Y21590
X31750Y6350
X31750Y13970
X8890Y25400
X8890Y22860
X16510Y22860
X16510Y25400
X8890Y20320
X8890Y17780
X16510Y20320
X16510Y17780
X6350Y33020
X13970Y33020
X31750Y36830
X39370Y36830
T4
X23774Y31852
X29108Y13259
X24232Y35814
X28956Y22860
X24689Y36576
X32614Y17526
M30